<svg width="28" height="28" viewBox="0 0 28 28" fill="none" xmlns="http://www.w3.org/2000/svg">
<path fill-rule="evenodd" clip-rule="evenodd" d="M22.0003 7.96427C21.8943 7.92378 21.7506 7.85932 21.5761 7.76604C21.1748 7.55142 20.6895 7.22649 20.2266 6.81692C19.2435 5.94702 18.667 4.97991 18.667 4.11918C18.667 3.79906 18.8047 3.39691 19.0707 3.08977C19.3126 2.81054 19.6064 2.66406 19.9594 2.66406C20.1487 2.66406 20.2849 2.70023 20.3862 2.74265C20.4924 2.78711 20.5865 2.84985 20.6691 2.92359C21.4277 3.60008 22.573 3.60008 23.3315 2.92359C23.4142 2.84985 23.5082 2.78711 23.6144 2.74265C23.7157 2.70023 23.852 2.66406 24.0412 2.66406C24.3942 2.66406 24.688 2.81054 24.9299 3.08977C25.196 3.39691 25.3337 3.79906 25.3337 4.11918C25.3337 4.97991 24.7571 5.94702 23.774 6.81692C23.3112 7.22649 22.8259 7.55142 22.4245 7.76604C22.2501 7.85932 22.1063 7.92378 22.0003 7.96427ZM22.0003 1.43095C22.4479 1.03181 23.1169 0.664062 24.0412 0.664062C26.0522 0.664062 27.3337 2.48884 27.3337 4.11918C27.3337 5.82697 26.251 7.29573 25.0994 8.31472C24.5183 8.82889 23.9044 9.24266 23.3676 9.52973C23.0992 9.67324 22.8455 9.78751 22.621 9.86682C22.4038 9.9435 22.1867 9.9974 22.0003 9.9974C21.814 9.9974 21.5968 9.9435 21.3797 9.86682C21.1551 9.78751 20.9015 9.67324 20.6331 9.52973C20.0962 9.24266 19.4823 8.82889 18.9012 8.31472C17.7497 7.29573 16.667 5.82697 16.667 4.11918C16.667 2.48884 17.9484 0.664062 19.9594 0.664062C20.8837 0.664062 21.5528 1.03181 22.0003 1.43095ZM9.76902 7.66546C10.1624 7.67098 10.516 7.90662 10.6725 8.26754L14.3787 16.8151L15.7721 13.5997C15.9306 13.234 16.2911 12.9974 16.6897 12.9974H19.667C20.2193 12.9974 20.667 13.4451 20.667 13.9974C20.667 14.5496 20.2193 14.9974 19.667 14.9974H17.3462L15.2965 19.727C15.1381 20.0927 14.7776 20.3293 14.3791 20.3294C13.9806 20.3294 13.6201 20.0928 13.4615 19.7272L9.72083 11.1003L8.16893 14.4208C8.00452 14.7726 7.65131 14.9974 7.26299 14.9974H1.66699C1.11471 14.9974 0.666992 14.5496 0.666992 13.9974C0.666992 13.4451 1.11471 12.9974 1.66699 12.9974H6.62653L8.84905 8.24196C9.01562 7.88557 9.37567 7.65994 9.76902 7.66546ZM3.19839 10.5578C4.55786 6.2847 8.38268 3.1108 13.0015 2.70747C13.5517 2.65943 14.0004 2.21635 14.0004 1.66406C14.0004 1.11178 13.5514 0.660152 13.0006 0.70098C7.42643 1.11419 2.80604 4.95447 1.23887 10.1224C1.05194 10.7388 1.53606 11.3307 2.1802 11.3307C2.65088 11.3307 3.0557 11.0064 3.19839 10.5578ZM14.0004 25.3307C8.94028 25.3307 4.65472 22.0146 3.19839 17.437C3.0557 16.9884 2.65088 16.6641 2.1802 16.6641C1.53606 16.6641 1.05194 17.256 1.23887 17.8724C2.89883 23.3463 7.9843 27.3307 14.0004 27.3307C20.4509 27.3307 25.8316 22.75 27.067 16.6641C27.1775 16.1195 27.2549 15.5629 27.2968 14.9965C27.3376 14.4457 26.886 13.9974 26.3337 13.9974C25.7814 13.9974 25.3383 14.446 25.2903 14.9962C25.2406 15.5652 25.1489 16.1222 25.0182 16.6641C23.819 21.6366 19.3411 25.3307 14.0004 25.3307Z" fill="currentcolor"/>
</svg>
