<svg xmlns="http://www.w3.org/2000/svg" width="25" height="24" fill="none">
  <path fill="currentcolor" fill-rule="evenodd"
    d="M4 12c0-3.026 2.477-5.5 5.559-5.5H21v2.542h-2.912A2.964 2.964 0 0 0 15.118 12c0 3.026-2.477 5.5-5.56 5.5C6.478 17.5 4 15.026 4 12Zm-1.5 0c0-3.866 3.16-7 7.059-7H22.5v5.542h-4.412c-.812 0-1.47.653-1.47 1.458 0 3.866-3.16 7-7.06 7C5.66 19 2.5 15.866 2.5 12Zm5.456 0c0-.869.712-1.583 1.603-1.583s1.603.714 1.603 1.583c0 .868-.712 1.583-1.603 1.583A1.593 1.593 0 0 1 7.956 12Zm1.603-3.083C7.85 8.917 6.456 10.29 6.456 12s1.395 3.083 3.103 3.083c1.708 0 3.103-1.374 3.103-3.083s-1.395-3.083-3.103-3.083Z"
    clip-rule="evenodd" />
</svg>
