<svg width="32" height="32" viewBox="0 0 32 32" fill="none" xmlns="http://www.w3.org/2000/svg">
  <path fill-rule="evenodd" clip-rule="evenodd" d="M10.6641 4.66406H21.3307C22.4353 4.66406 23.3307 5.55949 23.3307 6.66406V25.3307C23.3307 26.4353 22.4353 27.3307 21.3307 27.3307H10.6641C9.55949 27.3307 8.66406 26.4353 8.66406 25.3307V6.66406C8.66406 5.55949 9.55949 4.66406 10.6641 4.66406ZM6.66406 6.66406C6.66406 4.45492 8.45492 2.66406 10.6641 2.66406H21.3307C23.5399 2.66406 25.3307 4.45492 25.3307 6.66406V25.3307C25.3307 27.5399 23.5399 29.3307 21.3307 29.3307H10.6641C8.45492 29.3307 6.66406 27.5399 6.66406 25.3307V6.66406ZM14.3307 23.9974C13.7784 23.9974 13.3307 24.4451 13.3307 24.9974C13.3307 25.5497 13.7784 25.9974 14.3307 25.9974H17.6641C18.2163 25.9974 18.6641 25.5497 18.6641 24.9974C18.6641 24.4451 18.2163 23.9974 17.6641 23.9974H14.3307Z" fill="currentcolor"/>
</svg>
