<svg width="30" height="30" viewBox="0 0 30 30" fill="none" xmlns="http://www.w3.org/2000/svg">
  <path fill-rule="evenodd" clip-rule="evenodd" d="M8.96875 9.88685C8.96875 7.74098 11.3118 6.41738 13.1497 7.52505L19.975 11.6385C21.7539 12.7106 21.7539 15.29 19.975 16.3621L13.1497 20.4756C11.3118 21.5832 8.96875 20.2596 8.96875 18.1137V9.88685ZM10.9687 9.88685C10.9687 9.29733 11.6125 8.9337 12.1174 9.238L18.9426 13.3515C19.4314 13.646 19.4314 14.3546 18.9426 14.6491L12.1174 18.7626C11.6125 19.0669 10.9687 18.7033 10.9687 18.1137V9.88685Z" fill="currentcolor"/>
  <path d="M26.5552 17.2161C25.8207 16.4806 24.5407 16.4795 23.8052 17.2161L23.1541 17.8681C22.3963 18.627 22.3963 19.862 23.1541 20.622L23.8052 21.274L21.2852 23.7976L20.6341 23.1433C19.8763 22.3845 18.643 22.3856 17.8852 23.1433L17.2341 23.7953C16.8663 24.1636 16.6641 24.6532 16.6641 25.1728C16.6641 25.6936 16.8663 26.182 17.2341 26.5492L20.1063 29.4255C20.4741 29.7949 20.9618 29.9974 21.4818 29.9974C22.0007 29.9974 22.4896 29.7949 22.8563 29.4266L23.5074 28.7746C24.2652 28.0157 24.2652 26.7807 23.5074 26.0207L22.8563 25.3687L25.3763 22.8451L26.0274 23.4971C26.4063 23.8766 26.9041 24.0657 27.4018 24.0657C27.8996 24.0657 28.3974 23.8755 28.7763 23.496L29.4274 22.844C29.7952 22.479 29.9974 21.9895 29.9974 21.4698C29.9974 20.9491 29.7952 20.4607 29.4274 20.0935L26.5552 17.2161Z" fill="currentcolor"/>
  <path d="M21.9974 2.66406H5.9974C4.15645 2.66406 2.66406 4.15645 2.66406 5.9974V21.9974C2.66406 23.8383 4.15645 25.3307 5.9974 25.3307H12.9974C13.5497 25.3307 13.9974 25.7784 13.9974 26.3307C13.9974 26.883 13.5497 27.3307 12.9974 27.3307H5.9974C3.05188 27.3307 0.664062 24.9429 0.664062 21.9974V5.9974C0.664062 3.05188 3.05188 0.664062 5.9974 0.664062H21.9974C24.9429 0.664062 27.3307 3.05188 27.3307 5.9974V12.9974C27.3307 13.5497 26.883 13.9974 26.3307 13.9974C25.7784 13.9974 25.3307 13.5497 25.3307 12.9974V5.9974C25.3307 4.15645 23.8383 2.66406 21.9974 2.66406Z" fill="currentcolor"/>
</svg>
