<svg width="28" height="14" viewBox="0 0 28 14" fill="none" xmlns="http://www.w3.org/2000/svg">
    <path fill-rule="evenodd" clip-rule="evenodd" d="M23.3337 3.67188H4.66699V1.67188H23.3337V3.67188ZM4.66699 10.3385H23.3337V12.3385H4.66699V10.3385Z" fill="currentcolor"/>
    <path fill-rule="evenodd" clip-rule="evenodd" d="M8.66699 6.00521C8.66699 6.1893 8.51775 6.33854 8.33366 6.33854H5.00033C4.81623 6.33854 4.66699 6.1893 4.66699 6.00521V6.00521C4.66699 5.82111 4.81623 5.67188 5.00033 5.67188H8.33366C8.51775 5.67188 8.66699 5.82111 8.66699 6.00521V6.00521ZM4.66699 8.00521C4.66699 7.82111 4.81623 7.67188 5.00033 7.67188H8.33366C8.51775 7.67188 8.66699 7.82111 8.66699 8.00521V8.00521C8.66699 8.1893 8.51775 8.33854 8.33366 8.33854H5.00033C4.81623 8.33854 4.66699 8.1893 4.66699 8.00521V8.00521Z" fill="currentcolor"/>
    <path fill-rule="evenodd" clip-rule="evenodd" d="M23.334 6.00521C23.334 6.1893 23.1847 6.33854 23.0007 6.33854H19.6673C19.4832 6.33854 19.334 6.1893 19.334 6.00521V6.00521C19.334 5.82111 19.4832 5.67188 19.6673 5.67188H23.0007C23.1847 5.67188 23.334 5.82111 23.334 6.00521V6.00521ZM19.334 8.00521C19.334 7.82111 19.4832 7.67188 19.6673 7.67188H23.0007C23.1847 7.67188 23.334 7.82111 23.334 8.00521V8.00521C23.334 8.1893 23.1847 8.33854 23.0007 8.33854H19.6673C19.4832 8.33854 19.334 8.1893 19.334 8.00521V8.00521Z" fill="currentcolor"/>
    <path fill-rule="evenodd" clip-rule="evenodd" d="M2.66699 2.33594V11.6693H4.00033V2.33594H2.66699ZM2.00033 0.335938C1.26395 0.335938 0.666992 0.932891 0.666992 1.66927V12.3359C0.666992 13.0723 1.26395 13.6693 2.00033 13.6693H4.66699C5.40337 13.6693 6.00033 13.0723 6.00033 12.3359V1.66927C6.00033 0.932891 5.40337 0.335938 4.66699 0.335938H2.00033Z" fill="currentcolor"/>
    <path fill-rule="evenodd" clip-rule="evenodd" d="M24 2.33594V11.6693H25.3333V2.33594H24ZM23.3333 0.335938C22.597 0.335938 22 0.932891 22 1.66927V12.3359C22 13.0723 22.597 13.6693 23.3333 13.6693H26C26.7364 13.6693 27.3333 13.0723 27.3333 12.3359V1.66927C27.3333 0.932891 26.7364 0.335938 26 0.335938H23.3333Z" fill="currentcolor"/>
</svg>
