<svg width="23" height="28" viewBox="0 0 23 28" fill="none" xmlns="http://www.w3.org/2000/svg">
  <path fill-rule="evenodd" clip-rule="evenodd" d="M3.74074 2.66406C2.77936 2.66406 2 3.44342 2 4.4048V23.59C2 24.5514 2.77936 25.3307 3.74074 25.3307H9.58667C10.139 25.3307 10.5867 25.7784 10.5867 26.3307C10.5867 26.883 10.139 27.3307 9.58667 27.3307H3.74074C1.67479 27.3307 0 25.6559 0 23.59V4.4048C0 2.33885 1.67479 0.664062 3.74074 0.664062H13.5867C15.6498 0.664062 17.3333 2.33604 17.3333 4.4048V12.9233C17.3333 13.4756 16.8856 13.9233 16.3333 13.9233C15.781 13.9233 15.3333 13.4756 15.3333 12.9233V4.4048C15.3333 3.44623 14.5509 2.66406 13.5867 2.66406H3.74074Z" fill="currentcolor"/>
  <path fill-rule="evenodd" clip-rule="evenodd" d="M4 7C4 6.44772 4.44772 6 5 6H12.3333C12.8856 6 13.3333 6.44772 13.3333 7C13.3333 7.55228 12.8856 8 12.3333 8H5C4.44772 8 4 7.55228 4 7Z" fill="currentcolor"/>
  <path fill-rule="evenodd" clip-rule="evenodd" d="M4 11C4 10.4477 4.44772 10 5 10H12.3333C12.8856 10 13.3333 10.4477 13.3333 11C13.3333 11.5523 12.8856 12 12.3333 12H5C4.44772 12 4 11.5523 4 11Z" fill="currentcolor"/>
  <path fill-rule="evenodd" clip-rule="evenodd" d="M4.29963 14.2928C4.69014 13.9024 5.3232 13.9024 5.71371 14.2928L5.72037 14.2995C5.90795 14.487 6.01333 14.7414 6.01333 15.0067C6.01333 15.2719 5.90795 15.5263 5.72037 15.7138L5.71371 15.7205C5.3232 16.1109 4.69014 16.1109 4.29963 15.7205L4.29296 15.7138C4.10538 15.5263 4 15.2719 4 15.0067C4 14.7414 4.10538 14.487 4.29296 14.2995L4.29963 14.2928Z" fill="currentcolor"/>
  <path fill-rule="evenodd" clip-rule="evenodd" d="M16.9965 17.3281C16.5878 17.3281 16.198 17.4888 15.9123 17.7714C15.627 18.0535 15.4688 18.4339 15.4688 18.8281V20.6138C15.4688 21.1661 15.021 21.6138 14.4688 21.6138C13.9165 21.6138 13.4688 21.1661 13.4688 20.6138V18.8281C13.4688 17.8963 13.8431 17.0049 14.5059 16.3494C15.1683 15.6942 16.0644 15.3281 16.9965 15.3281C17.9286 15.3281 18.8247 15.6942 19.4871 16.3494C20.1499 17.0049 20.5243 17.8963 20.5243 18.8281V20.6138C20.5243 21.1661 20.0766 21.6138 19.5243 21.6138C18.972 21.6138 18.5243 21.1661 18.5243 20.6138V18.8281C18.5243 18.4339 18.3661 18.0535 18.0807 17.7714C17.7951 17.4888 17.4053 17.3281 16.9965 17.3281Z" fill="currentcolor"/>
  <path fill-rule="evenodd" clip-rule="evenodd" d="M14.4696 21.6172C14.0143 21.6172 13.6641 21.9794 13.6641 22.4029V24.5458C13.6641 24.9693 14.0143 25.3315 14.4696 25.3315H19.5252C19.9805 25.3315 20.3307 24.9693 20.3307 24.5458V22.4029C20.3307 21.9794 19.9805 21.6172 19.5252 21.6172H14.4696ZM11.6641 22.4029C11.6641 20.854 12.9306 19.6172 14.4696 19.6172H19.5252C21.0642 19.6172 22.3307 20.854 22.3307 22.4029V24.5458C22.3307 26.0947 21.0642 27.3315 19.5252 27.3315H14.4696C12.9306 27.3315 11.6641 26.0947 11.6641 24.5458V22.4029Z" fill="currentcolor"/>
</svg>
