<svg width="32" height="32" viewBox="0 0 32 32" fill="none" xmlns="http://www.w3.org/2000/svg">
  <path fill-rule="evenodd" clip-rule="evenodd" d="M7.10804 27.3307C5.7048 27.3307 4.58985 26.1513 4.668 24.7519L5.57764 8.372C5.69359 6.29109 7.41401 4.66406 9.49762 4.66406H22.4973C24.581 4.66406 26.3015 6.29122 26.4173 8.37225L27.3269 24.7498C27.404 26.1521 26.2878 27.3307 24.8854 27.3307H7.10804ZM24.8854 29.3307C27.4365 29.3307 29.4646 27.187 29.3238 24.6389L28.4142 8.2611C28.2394 5.12036 25.6424 2.66406 22.4973 2.66406H9.49762C6.35251 2.66406 3.75553 5.12036 3.58072 8.2611L2.67111 24.6404C2.52889 27.187 4.55699 29.3307 7.10804 29.3307H24.8854ZM11.3307 10.3307C11.3307 9.77844 10.883 9.33073 10.3307 9.33073C9.77844 9.33073 9.33073 9.77844 9.33073 10.3307C9.33073 13.8846 12.3737 16.6641 15.9974 16.6641C19.6211 16.6641 22.6641 13.8846 22.6641 10.3307C22.6641 9.77844 22.2163 9.33073 21.6641 9.33073C21.1118 9.33073 20.6641 9.77844 20.6641 10.3307C20.6641 12.6675 18.6325 14.6641 15.9974 14.6641C13.3623 14.6641 11.3307 12.6675 11.3307 10.3307Z" fill="currentcolor"/>
</svg>
