<svg
  xmlns="http://www.w3.org/2000/svg"
  className="h-8 w-8"
  fill="none"
  viewBox="0.66 0.16 23.92 26.67"
>
  <g>
    <path
      fill-rule="evenodd"
      clip-rule="evenodd"
      d="M16.7347 2.16406C13.5034 2.16406 10.8828 4.78461 10.8828 8.01591C10.8828 8.5682 10.4351 9.01591 9.88281 9.01591C9.33053 9.01591 8.88281 8.5682 8.88281 8.01591C8.88281 3.68004 12.3988 0.164062 16.7347 0.164062C21.0705 0.164062 24.5865 3.68004 24.5865 8.01591V25.8307C24.5865 26.383 24.1388 26.8307 23.5865 26.8307C23.0342 26.8307 22.5865 26.383 22.5865 25.8307V8.01591C22.5865 4.78461 19.966 2.16406 16.7347 2.16406Z"
      fill="currentcolor"
    ></path>
    <path
      fill-rule="evenodd"
      clip-rule="evenodd"
      d="M9.58646 9.01563C7.71726 9.01563 6.0592 10.2107 5.469 11.9835L5.46879 11.9842C5.21631 12.7409 5.77943 13.5221 6.57712 13.5221H13.1988C13.9965 13.5221 14.5596 12.7409 14.3071 11.9842L14.3069 11.9835C13.7167 10.2108 12.0574 9.01563 10.1894 9.01563H9.58646ZM3.57161 11.3512C4.43418 8.76109 6.85691 7.01562 9.58646 7.01562H10.1894C12.9174 7.01562 15.3416 8.76094 16.2043 11.3512C16.8891 13.4037 15.3611 15.5221 13.1988 15.5221H6.57712C4.41505 15.5221 2.88706 13.4042 3.5714 11.3518"
      fill="currentcolor"
    ></path>
    <path
      fill-rule="evenodd"
      clip-rule="evenodd"
      d="M9.88281 23.4609C10.4351 23.4609 10.8828 23.9087 10.8828 24.4609V25.8313C10.8828 26.3836 10.4351 26.8313 9.88281 26.8313C9.33053 26.8313 8.88281 26.3836 8.88281 25.8313V24.4609C8.88281 23.9087 9.33053 23.4609 9.88281 23.4609Z"
      fill="currentcolor"
    ></path>
    <path
      fill-rule="evenodd"
      clip-rule="evenodd"
      d="M9.88281 17.9766C10.4351 17.9766 10.8828 18.4243 10.8828 18.9766V20.3469C10.8828 20.8992 10.4351 21.3469 9.88281 21.3469C9.33053 21.3469 8.88281 20.8992 8.88281 20.3469V18.9766C8.88281 18.4243 9.33053 17.9766 9.88281 17.9766Z"
      fill="currentcolor"
    ></path>
    <path
      fill-rule="evenodd"
      clip-rule="evenodd"
      d="M16.7993 22.0103C17.2597 21.7052 17.8802 21.8311 18.1853 22.2915L18.939 23.4289C19.244 23.8893 19.1181 24.5098 18.6578 24.8149C18.1974 25.1199 17.5769 24.994 17.2718 24.5336L16.5181 23.3962C16.213 22.9359 16.3389 22.3153 16.7993 22.0103Z"
      fill="currentcolor"
    ></path>
    <path
      fill-rule="evenodd"
      clip-rule="evenodd"
      d="M13.7759 17.4634C14.2362 17.1583 14.8568 17.2842 15.1618 17.7446L15.9155 18.882C16.2206 19.3424 16.0947 19.9629 15.6343 20.268C15.1739 20.5731 14.5534 20.4472 14.2483 19.9868L13.4946 18.8494C13.1896 18.389 13.3155 17.7685 13.7759 17.4634Z"
      fill="currentcolor"
    ></path>
    <path
      fill-rule="evenodd"
      clip-rule="evenodd"
      d="M6.00151 17.4634C6.46189 17.7685 6.58779 18.389 6.28272 18.8494L5.52901 19.9868C5.22394 20.4472 4.60342 20.5731 4.14304 20.268C3.68266 19.9629 3.55676 19.3424 3.86183 18.882L4.61553 17.7446C4.9206 17.2842 5.54113 17.1583 6.00151 17.4634Z"
      fill="currentcolor"
    ></path>
    <path
      fill-rule="evenodd"
      clip-rule="evenodd"
      d="M2.97026 22.0103C3.43064 22.3153 3.55654 22.9359 3.25147 23.3962L2.49776 24.5336C2.19269 24.994 1.57217 25.1199 1.11179 24.8149C0.651411 24.5098 0.525508 23.8893 0.830579 23.4289L1.58428 22.2915C1.88935 21.8311 2.50988 21.7052 2.97026 22.0103Z"
      fill="currentcolor"
    ></path>
  </g>
</svg>