<svg width="28" height="28" viewBox="0 0 28 28" fill="none" xmlns="http://www.w3.org/2000/svg">
    <path fill-rule="evenodd" clip-rule="evenodd" d="M7.70269 2.84829C7.51429 2.87144 7.33423 2.93973 7.17782 3.04738C7.01967 3.15623 6.89048 3.30203 6.80146 3.47213C6.71244 3.64222 6.66629 3.83148 6.667 4.02346C6.66771 4.21544 6.71527 4.40435 6.80555 4.57378C6.81175 4.58541 6.81772 4.59717 6.82345 4.60904L7.88667 6.8099C8.12691 7.3072 7.91853 7.90509 7.42123 8.14533C6.92394 8.38557 6.32604 8.17718 6.08581 7.67989L5.03038 5.49515C4.79359 5.04338 4.66891 4.54116 4.66701 4.03089C4.66509 3.51341 4.7895 3.00327 5.02945 2.54477C5.2694 2.08628 5.61763 1.69327 6.04391 1.39988C6.47019 1.10649 6.96164 0.921577 7.47559 0.861195L7.49025 0.859473L7.49026 0.859581C10.0325 0.59889 12.5946 0.59889 15.1368 0.859581L15.0348 1.85436L15.1331 0.859201C15.6524 0.910464 16.1512 1.08877 16.5853 1.37839C17.0194 1.66801 17.3756 2.06004 17.6224 2.51988C17.8691 2.97972 17.999 3.49323 18.0003 4.0151C18.0017 4.53159 17.8772 5.04056 17.6377 5.49802L16.5591 7.6869C16.315 8.18231 15.7155 8.38602 15.2201 8.14191C14.7247 7.89779 14.521 7.2983 14.7651 6.80289L15.8496 4.60202C15.8539 4.59321 15.8584 4.58446 15.863 4.57578C15.9537 4.40471 16.0008 4.21395 16.0003 4.02034C15.9998 3.82673 15.9517 3.63622 15.8601 3.46562C15.7686 3.29503 15.6364 3.14959 15.4754 3.04214C15.3143 2.9347 15.1293 2.86855 14.9366 2.84953L14.9328 2.84915L14.9328 2.84915C12.5291 2.60265 10.1065 2.60237 7.70269 2.84829Z" fill="currentcolor"/>
    <path d="M11.2721 6.00018C13.2229 5.98858 15.1305 6.52824 16.7923 7.54828C17.263 7.83719 17.3498 8.46864 17.018 8.91015C16.6862 9.35166 16.0618 9.43482 15.5849 9.15626C14.2758 8.39162 12.7938 7.99117 11.284 8.00015C9.44407 8.01109 7.65203 8.62955 6.1697 9.77069C4.68682 10.9123 3.59051 12.5183 3.04721 14.358C2.50383 16.198 2.54383 18.17 3.16102 19.9844C3.77755 21.7969 4.9359 23.3522 6.46087 24.428C7.34422 25.036 8.38165 25.3499 9.43602 25.3327L9.45242 25.3324L13.0003 25.3325C13.5526 25.3325 14.0003 25.7802 14.0003 26.3325C14.0003 26.8848 13.5526 27.3325 13.0003 27.3325H9.46028C7.98585 27.3549 6.54242 26.9137 5.32131 26.0716L5.31302 26.0659C3.43331 24.7415 2.01807 22.8348 1.26757 20.6285C0.517169 18.4225 0.468773 16.0276 1.1291 13.7916C1.78951 11.5553 3.12597 9.58985 4.94969 8.1859C6.77397 6.78152 8.9892 6.01376 11.2721 6.00018Z" fill="currentcolor"/>
    <path fill-rule="evenodd" clip-rule="evenodd" d="M17.334 12V14.6667H25.334V12H17.334ZM16.6673 10C15.9309 10 15.334 10.597 15.334 11.3333V15.3333C15.334 16.0697 15.9309 16.6667 16.6673 16.6667H26.0007C26.737 16.6667 27.334 16.0697 27.334 15.3333V11.3333C27.334 10.597 26.737 10 26.0007 10H16.6673Z" fill="currentcolor"/>
    <path fill-rule="evenodd" clip-rule="evenodd" d="M22.334 16.3281V20.9948C22.334 21.5471 21.8863 21.9948 21.334 21.9948C20.7817 21.9948 20.334 21.5471 20.334 20.9948V16.3281C20.334 15.7758 20.7817 15.3281 21.334 15.3281C21.8863 15.3281 22.334 15.7758 22.334 16.3281Z" fill="currentcolor"/>
    <path fill-rule="evenodd" clip-rule="evenodd" d="M17.334 22.6641V25.3307H25.334V22.6641H17.334ZM16.6673 20.6641C15.9309 20.6641 15.334 21.261 15.334 21.9974V25.9974C15.334 26.7338 15.9309 27.3307 16.6673 27.3307H26.0007C26.737 27.3307 27.334 26.7338 27.334 25.9974V21.9974C27.334 21.261 26.737 20.6641 26.0007 20.6641H16.6673Z" fill="currentcolor"/>
</svg>
