<svg width="32" height="32" viewBox="0 0 32 32" fill="none" xmlns="http://www.w3.org/2000/svg">
  <path fill-rule="evenodd" clip-rule="evenodd" d="M14.9974 3.66406C14.9974 3.11178 15.4451 2.66406 15.9974 2.66406C23.3611 2.66406 29.3307 8.63367 29.3307 15.9974C29.3307 23.3611 23.3611 29.3307 15.9974 29.3307C8.63367 29.3307 2.66406 23.3611 2.66406 15.9974C2.66406 15.4451 3.11178 14.9974 3.66406 14.9974C4.21635 14.9974 4.66406 15.4451 4.66406 15.9974C4.66406 22.2565 9.73824 27.3307 15.9974 27.3307C22.2565 27.3307 27.3307 22.2565 27.3307 15.9974C27.3307 9.73824 22.2565 4.66406 15.9974 4.66406C15.4451 4.66406 14.9974 4.21635 14.9974 3.66406Z" fill="currentcolor"/>
  <path fill-rule="evenodd" clip-rule="evenodd" d="M3.11618 12.5441C3.25912 12.0106 3.80746 11.694 4.34093 11.8369L4.40532 11.8542C4.93879 11.9971 5.25537 12.5455 5.11243 13.0789C4.96949 13.6124 4.42115 13.929 3.88768 13.7861L3.82329 13.7688C3.28982 13.6259 2.97324 13.0775 3.11618 12.5441Z" fill="currentcolor"/>
  <path fill-rule="evenodd" clip-rule="evenodd" d="M4.45313 9.32696C4.72927 8.84867 5.34086 8.6848 5.81915 8.96094L5.87689 8.99427C6.35518 9.27041 6.51905 9.882 6.24291 10.3603C5.96677 10.8386 5.35518 11.0025 4.87689 10.7263L4.81915 10.693C4.34086 10.4168 4.17698 9.80526 4.45313 9.32696Z" fill="currentcolor"/>
  <path fill-rule="evenodd" clip-rule="evenodd" d="M6.56633 6.56648C6.95686 6.17596 7.59002 6.17596 7.98054 6.56648L8.02768 6.61362C8.41821 7.00415 8.41821 7.63731 8.02768 8.02784C7.63716 8.41836 7.004 8.41836 6.61347 8.02784L6.56633 7.9807C6.17581 7.59017 6.17581 6.95701 6.56633 6.56648Z" fill="currentcolor"/>
  <path fill-rule="evenodd" clip-rule="evenodd" d="M9.32929 4.45312C9.80758 4.17698 10.4192 4.34086 10.6953 4.81915L10.7286 4.87689C11.0048 5.35518 10.8409 5.96677 10.3626 6.24291C9.88433 6.51905 9.27274 6.35518 8.99659 5.87689L8.96326 5.81915C8.68712 5.34086 8.85099 4.72927 9.32929 4.45312Z" fill="currentcolor"/>
  <path fill-rule="evenodd" clip-rule="evenodd" d="M12.5497 3.11819C13.0832 2.97525 13.6315 3.29183 13.7744 3.8253L13.7917 3.8897C13.9346 4.42316 13.6181 4.9715 13.0846 5.11444C12.5511 5.25738 12.0028 4.9408 11.8598 4.40733L11.8426 4.34294C11.6997 3.80947 12.0162 3.26114 12.5497 3.11819Z" fill="currentcolor"/>
  <path d="M21.9072 15.1682C21.6221 15.1595 21.337 15.1509 21.052 15.1423C20.5909 15.1284 20.1299 15.1145 19.6689 15.1005C19.5572 15.0972 19.4455 15.0938 19.3338 15.0904C19.319 15.09 19.3204 15.0828 19.3143 15.0695C19.2973 15.0322 19.2804 14.9948 19.2634 14.9575C19.1017 14.6016 18.9401 14.2458 18.7784 13.89C18.6035 13.5051 18.4286 13.1202 18.2537 12.7352C18.2183 12.6573 18.183 12.5795 18.1475 12.5016C18.0055 12.189 17.7161 11.9536 17.3709 11.8723C17.2619 11.8466 17.157 11.8058 17.0469 11.7826C16.948 11.7619 16.8481 11.7557 16.7472 11.7584C16.7043 11.7596 16.6613 11.7607 16.6184 11.7618C16.5269 11.7643 16.4354 11.7667 16.3439 11.7691C15.9571 11.7793 15.5704 11.7896 15.1837 11.7998C14.6938 11.8128 14.204 11.8258 13.7141 11.8387C13.3234 11.8491 12.9326 11.8595 12.5418 11.8698C12.2869 11.8765 12.005 11.8566 11.7741 11.9727C11.5296 12.0957 11.3658 12.326 11.3265 12.5871C11.313 12.6772 11.2995 12.7673 11.2859 12.8574C11.2244 13.2668 11.1628 13.6762 11.1013 14.0856C11.0386 14.5031 10.9759 14.9205 10.9131 15.3379C10.8981 15.4381 10.883 15.5382 10.868 15.6383C10.8327 15.873 10.9027 16.1099 11.0744 16.2832C11.3151 16.5261 11.7069 16.5846 12.0135 16.4244C12.2295 16.3115 12.363 16.115 12.4123 15.8873C12.487 15.542 12.5617 15.1966 12.6364 14.8513C12.7186 14.4714 12.8008 14.0914 12.883 13.7114C12.8888 13.6848 12.8945 13.6582 12.9003 13.6316C12.9009 13.6289 12.9678 13.6365 12.9725 13.6369C13.1513 13.6517 13.3301 13.6665 13.5089 13.6814C13.9252 13.7159 14.3414 13.7504 14.7577 13.785C14.7647 13.7855 14.8187 13.7878 14.8169 13.7929C15.1129 13.8288 15.4142 13.8373 15.7117 13.8565C15.6806 13.8822 15.6322 13.8927 15.5937 13.9032C15.523 13.9224 15.4508 13.9364 15.3786 13.949C15.1991 13.9803 15.0172 14.0019 14.8351 14.014C14.8143 14.0154 14.7935 14.0166 14.7726 14.0177C14.7625 14.0182 14.7525 14.0186 14.7424 14.0191C14.7273 14.0197 14.7293 14.0277 14.7245 14.0403C14.7066 14.0868 14.6885 14.1331 14.6702 14.1795C14.6327 14.2742 14.5944 14.3686 14.5553 14.4627C14.4721 14.6634 14.3854 14.8628 14.2952 15.0607C14.1255 15.4328 13.9414 15.7984 13.7375 16.1544C13.5601 16.4643 13.3698 16.767 13.1869 17.0739C13.0807 17.2522 12.9768 17.4318 12.8764 17.6131C12.8492 17.6622 12.8222 17.7115 12.7954 17.7608C12.787 17.7764 12.7897 17.7756 12.7954 17.7905C12.7954 17.7905 12.7953 17.7906 12.7953 17.7906C12.7949 17.7913 12.7945 17.792 12.7941 17.7926C12.7894 17.8005 12.7846 17.8084 12.7799 17.8162C12.7173 17.9198 12.6548 18.0233 12.5923 18.1269C12.36 18.5115 12.1278 18.8961 11.8956 19.2807C11.729 19.5565 11.5625 19.8323 11.396 20.1081C11.3897 20.1185 11.3893 20.1282 11.3769 20.1256C11.3498 20.12 11.3226 20.1143 11.2955 20.1087C11.1667 20.0818 11.0379 20.055 10.909 20.0282C10.4727 19.9373 10.0364 19.8464 9.60013 19.7556C9.15357 19.6626 8.707 19.5696 8.26044 19.4766C8.11878 19.4471 7.97712 19.4176 7.8355 19.3881C7.74088 19.3684 7.64664 19.3455 7.54933 19.3427C7.19892 19.3325 6.86825 19.5356 6.73142 19.8454C6.59776 20.1481 6.66683 20.5066 6.90479 20.7431C7.08535 20.9225 7.34514 20.9842 7.58277 21.0645C7.95315 21.1896 8.32357 21.3148 8.69395 21.44C9.15663 21.5963 9.61935 21.7527 10.082 21.9091C10.4661 22.0389 10.8502 22.1687 11.2342 22.2985C11.3434 22.3354 11.4525 22.3723 11.5617 22.4092C11.6674 22.4449 11.7721 22.4778 11.8848 22.4891C12.2428 22.525 12.604 22.3794 12.8259 22.107C12.8824 22.0376 12.9339 21.9639 12.9873 21.8923C13.2026 21.6037 13.4179 21.3151 13.6333 21.0266C13.9083 20.658 14.1833 20.2895 14.4583 19.9209C14.5741 19.7656 14.69 19.6104 14.8058 19.4551C14.6525 19.38 14.5024 19.2979 14.3579 19.2079C14.3004 19.1722 14.2436 19.1352 14.1898 19.0944C14.1589 19.0709 14.1191 19.0438 14.1007 19.0091C14.4483 19.1213 14.7955 19.2329 15.1467 19.3336C15.5451 19.4478 15.9435 19.562 16.3418 19.6762C16.7589 19.7957 17.176 19.9153 17.5931 20.0348C17.6786 20.0593 17.7641 20.0838 17.8497 20.1083C17.8575 20.1106 17.8619 20.1226 17.866 20.1288C17.8839 20.1558 17.9018 20.1827 17.9198 20.2097C18.0966 20.4759 18.2734 20.7421 18.4502 21.0082C18.7103 21.3998 18.9704 21.7912 19.2305 22.1827C19.4605 22.529 19.6906 22.8754 19.9206 23.2217C19.989 23.3246 20.0574 23.4275 20.1257 23.5304C20.1795 23.6113 20.2311 23.6915 20.3028 23.7599C20.5526 23.9983 20.9403 24.0662 21.2617 23.9278C21.5708 23.7946 21.7735 23.4912 21.7704 23.166C21.7682 22.9266 21.6336 22.7125 21.5286 22.5023C21.3615 22.1675 21.1943 21.8327 21.0272 21.4979C20.8154 21.0736 20.6035 20.6493 20.3917 20.225C20.2084 19.8579 20.0252 19.4908 19.8419 19.1237C19.7604 18.9606 19.6789 18.7973 19.5974 18.6342C19.5273 18.4937 19.4202 18.3709 19.2883 18.2803C19.1936 18.2152 19.0873 18.1742 18.9809 18.1307C18.8831 18.0908 18.7852 18.0508 18.6874 18.0109C18.2634 17.8378 17.8394 17.6647 17.4154 17.4916C17.2865 17.439 17.1576 17.3864 17.0286 17.3337C17.0217 17.3309 17.0149 17.3281 17.008 17.3253C17.0081 17.3253 17.0974 17.1178 17.1052 17.0995C17.1818 16.9197 17.2572 16.7393 17.3326 16.559C17.4511 16.2757 17.5853 15.9937 17.669 15.6995C17.7355 15.4659 17.7971 15.2311 17.86 14.9967C17.8775 15.0257 17.8804 15.0648 17.8841 15.0973C17.8908 15.1557 17.8927 15.2146 17.8934 15.2733C17.8951 15.4265 17.887 15.5799 17.8729 15.7324C17.8659 15.8071 17.8574 15.8817 17.846 15.9559C17.8412 15.9872 17.8358 16.0184 17.8297 16.0495C17.8263 16.0666 17.8141 16.0902 17.8242 16.1056C17.8704 16.176 17.9167 16.2464 17.9628 16.3169C18.0429 16.4394 18.1276 16.5505 18.2551 16.6322C18.3981 16.7238 18.5693 16.7704 18.7412 16.7652C18.8165 16.763 18.8918 16.7607 18.9671 16.7584C19.3846 16.7458 19.802 16.7332 20.2195 16.7206C20.6645 16.7072 21.1095 16.6937 21.5546 16.6803C21.6643 16.677 21.7741 16.6736 21.8839 16.6703C22.1231 16.6631 22.3468 16.565 22.4968 16.3831C22.68 16.1609 22.7161 15.8495 22.5882 15.594C22.463 15.3435 22.1966 15.1769 21.9072 15.1682V15.1682Z" fill="currentcolor"/>
  <path d="M20.723 10.0094C20.723 10.6592 20.4024 11.2934 19.8485 11.6729C19.3028 12.0468 18.5789 12.1243 17.9632 11.8663C17.3509 11.6097 16.9111 11.0574 16.7782 10.4329C16.6404 9.78531 16.8308 9.09075 17.3013 8.60516C17.757 8.13487 18.4405 7.90891 19.1 8.03411C19.7517 8.15788 20.2945 8.61044 20.5518 9.19344C20.6654 9.45091 20.723 9.72992 20.723 10.0094V10.0094Z" fill="currentcolor"/>
</svg>
