<svg width="32" height="32" viewBox="0 0 32 32" fill="none" xmlns="http://www.w3.org/2000/svg">
  <path fill-rule="evenodd" clip-rule="evenodd" d="M8.66406 12.9718H5.33073C4.96254 12.9718 4.66406 13.2702 4.66406 13.6384V18.3564C4.66406 18.7246 4.96254 19.023 5.33073 19.023H8.66406V22.6641C8.66406 23.0323 8.96254 23.3307 9.33073 23.3307H10.6641C11.0323 23.3307 11.3307 23.0323 11.3307 22.6641V19.9974V11.9974V9.33073C11.3307 8.96254 11.0323 8.66406 10.6641 8.66406H9.33073C8.96254 8.66406 8.66406 8.96254 8.66406 9.33073V12.9718ZM13.3307 11.9974V9.33073C13.3307 7.85797 12.1368 6.66406 10.6641 6.66406H9.33073C7.85797 6.66406 6.66406 7.85797 6.66406 9.33073V10.9718H5.33073C3.85797 10.9718 2.66406 12.1657 2.66406 13.6384V18.3564C2.66406 19.8291 3.85797 21.023 5.33073 21.023H6.66406V22.6641C6.66406 24.1368 7.85797 25.3307 9.33073 25.3307H10.6641C12.1368 25.3307 13.3307 24.1368 13.3307 22.6641V19.9974H18.6641V22.6641C18.6641 24.1368 19.858 25.3307 21.3307 25.3307H22.6641C24.1368 25.3307 25.3307 24.1368 25.3307 22.6641V21.023H26.6641C28.1368 21.023 29.3307 19.8291 29.3307 18.3564V13.6384C29.3307 12.1657 28.1368 10.9718 26.6641 10.9718H25.3307V9.33073C25.3307 7.85797 24.1368 6.66406 22.6641 6.66406H21.3307C19.858 6.66406 18.6641 7.85797 18.6641 9.33073V11.9974H13.3307ZM13.3307 17.5974V14.3974H18.6641V17.5974H13.3307ZM20.6641 11.9974V19.9974V22.6641C20.6641 23.0323 20.9625 23.3307 21.3307 23.3307H22.6641C23.0323 23.3307 23.3307 23.0323 23.3307 22.6641V19.023H26.6641C27.0323 19.023 27.3307 18.7246 27.3307 18.3564V13.6384C27.3307 13.2702 27.0323 12.9718 26.6641 12.9718H23.3307V9.33073C23.3307 8.96254 23.0323 8.66406 22.6641 8.66406H21.3307C20.9625 8.66406 20.6641 8.96254 20.6641 9.33073V11.9974Z" fill="currentcolor"/>
</svg>
