<svg viewBox="0 0 48 48" fill="none" xmlns="http://www.w3.org/2000/svg">
    <path fill-rule="evenodd" clip-rule="evenodd" d="M22.5 5.5C22.5 4.67157 23.1716 4 24 4C35.0456 4 44 12.9544 44 24C44 35.0456 35.0456 44 24 44C12.9544 44 4 35.0456 4 24C4 23.1716 4.67157 22.5 5.5 22.5C6.32843 22.5 7 23.1716 7 24C7 33.3887 14.6113 41 24 41C33.3887 41 41 33.3887 41 24C41 14.6113 33.3887 7 24 7C23.1716 7 22.5 6.32843 22.5 5.5Z" fill="currentcolor"/>
    <path fill-rule="evenodd" clip-rule="evenodd" d="M4.68208 18.8239C4.8965 18.0237 5.719 17.5488 6.5192 17.7632L6.61579 17.7891C7.41599 18.0035 7.89087 18.826 7.67645 19.6262C7.46204 20.4264 6.63954 20.9013 5.83934 20.6869L5.74274 20.661C4.94254 20.4466 4.46767 19.6241 4.68208 18.8239Z" fill="currentcolor"/>
    <path fill-rule="evenodd" clip-rule="evenodd" d="M6.67969 14.0022C7.0939 13.2847 8.01129 13.0389 8.72873 13.4531L8.81533 13.5031C9.53277 13.9173 9.77858 14.8347 9.36437 15.5522C8.95015 16.2696 8.03277 16.5154 7.31533 16.1012L7.22873 16.0512C6.51129 15.637 6.26547 14.7196 6.67969 14.0022Z" fill="currentcolor"/>
    <path fill-rule="evenodd" clip-rule="evenodd" d="M9.85731 9.85754C10.4431 9.27175 11.3928 9.27175 11.9786 9.85754L12.0493 9.92825C12.6351 10.514 12.6351 11.4638 12.0493 12.0496C11.4636 12.6354 10.5138 12.6354 9.92802 12.0496L9.85731 11.9789C9.27152 11.3931 9.27152 10.4433 9.85731 9.85754Z" fill="currentcolor"/>
    <path fill-rule="evenodd" clip-rule="evenodd" d="M13.9978 6.67969C14.7153 6.26547 15.6327 6.51129 16.0469 7.22873L16.0969 7.31533C16.5111 8.03277 16.2653 8.95015 15.5478 9.36437C14.8304 9.77858 13.913 9.53277 13.4988 8.81533L13.4488 8.72873C13.0346 8.01129 13.2804 7.0939 13.9978 6.67969Z" fill="currentcolor"/>
    <path fill-rule="evenodd" clip-rule="evenodd" d="M18.8245 4.6851C19.6247 4.47069 20.4473 4.94556 20.6617 5.74576L20.6875 5.84236C20.902 6.64256 20.4271 7.46506 19.6269 7.67947C18.8267 7.89389 18.0042 7.41901 17.7898 6.61881L17.7639 6.52222C17.5495 5.72202 18.0243 4.89952 18.8245 4.6851Z" fill="currentcolor"/>
    <path d="M32.8648 22.7562C32.4371 22.7432 32.0095 22.7303 31.5819 22.7174C30.8903 22.6965 30.1988 22.6756 29.5072 22.6547C29.3397 22.6497 29.1721 22.6446 29.0046 22.6395C28.9824 22.6389 28.9845 22.6282 28.9754 22.6081C28.9499 22.5521 28.9245 22.4961 28.899 22.4401C28.6565 21.9064 28.414 21.3726 28.1715 20.8389C27.9091 20.2615 27.6468 19.6841 27.3845 19.1067C27.3314 18.9899 27.2783 18.8731 27.2252 18.7563C27.0122 18.2874 26.578 17.9343 26.0603 17.8123C25.8968 17.7738 25.7394 17.7125 25.5743 17.6779C25.4259 17.6467 25.2761 17.6375 25.1247 17.6415C25.0603 17.6432 24.9959 17.6449 24.9315 17.6466C24.7942 17.6503 24.657 17.6539 24.5197 17.6576C23.9396 17.6729 23.3595 17.6883 22.7794 17.7037C22.0446 17.7231 21.3098 17.7426 20.5751 17.762C19.989 17.7775 19.4028 17.7931 18.8166 17.8086C18.4342 17.8187 18.0113 17.7888 17.6651 17.963C17.2983 18.1475 17.0526 18.493 16.9937 18.8846C16.9734 19.0197 16.9531 19.1549 16.9328 19.29C16.8405 19.9041 16.7482 20.5182 16.6559 21.1323C16.5618 21.7585 16.4677 22.3847 16.3736 23.0108C16.351 23.161 16.3284 23.3112 16.3059 23.4614C16.253 23.8135 16.358 24.1687 16.6156 24.4287C16.9766 24.7931 17.5643 24.8808 18.0242 24.6405C18.3481 24.4711 18.5485 24.1763 18.6223 23.8349C18.7344 23.3169 18.8465 22.7988 18.9585 22.2809C19.0818 21.711 19.2051 21.141 19.3284 20.5711C19.3371 20.5311 19.3457 20.4912 19.3543 20.4513C19.3552 20.4472 19.4557 20.4586 19.4627 20.4592C19.7309 20.4814 19.9991 20.5037 20.2672 20.526C20.8917 20.5778 21.516 20.6295 22.1404 20.6813C22.1509 20.6822 22.232 20.6856 22.2293 20.6932C22.6733 20.7471 23.1252 20.7599 23.5715 20.7887C23.5247 20.8273 23.4522 20.843 23.3944 20.8587C23.2885 20.8875 23.1801 20.9086 23.0718 20.9274C22.8025 20.9744 22.5297 21.0067 22.2566 21.0249C22.2253 21.027 22.1941 21.0288 22.1628 21.0304C22.1477 21.0312 22.1326 21.0319 22.1175 21.0325C22.0948 21.0335 22.0979 21.0454 22.0906 21.0643C22.0638 21.134 22.0366 21.2036 22.0091 21.2731C21.953 21.4152 21.8955 21.5568 21.8369 21.6979C21.712 21.999 21.582 22.2981 21.4467 22.5949C21.1921 23.1531 20.916 23.7016 20.6102 24.2355C20.344 24.7003 20.0586 25.1544 19.7843 25.6147C19.6249 25.8822 19.4692 26.1516 19.3184 26.4236C19.2777 26.4973 19.2372 26.5711 19.197 26.6451C19.1844 26.6685 19.1885 26.6672 19.197 26.6896C19.197 26.6896 19.1969 26.6899 19.1969 26.6899C19.1963 26.6908 19.1957 26.6919 19.1951 26.6928C19.188 26.7046 19.1808 26.7165 19.1737 26.7283C19.0799 26.8836 18.9861 27.0389 18.8923 27.1943C18.544 27.7712 18.1956 28.3481 17.8473 28.925C17.5975 29.3387 17.3477 29.7524 17.0979 30.1661C17.0885 30.1816 17.0879 30.1962 17.0693 30.1923C17.0286 30.1838 16.9879 30.1753 16.9472 30.1669C16.754 30.1267 16.5607 30.0864 16.3675 30.0462C15.713 29.9099 15.0586 29.7736 14.4041 29.6373C13.7343 29.4978 13.0644 29.3583 12.3946 29.2188C12.1821 29.1746 11.9696 29.1303 11.7572 29.0861C11.6152 29.0566 11.4739 29.0221 11.3279 29.0179C10.8023 29.0027 10.3063 29.3073 10.101 29.7721C9.90054 30.2261 10.0042 30.7638 10.3611 31.1185C10.6319 31.3877 11.0216 31.4802 11.3781 31.6006C11.9336 31.7883 12.4893 31.9761 13.0448 32.1639C13.7389 32.3984 14.4329 32.633 15.127 32.8676C15.7031 33.0623 16.2792 33.2569 16.8553 33.4516C17.019 33.507 17.1827 33.5623 17.3464 33.6176C17.505 33.6712 17.662 33.7206 17.8311 33.7375C18.3681 33.7914 18.9099 33.5731 19.2428 33.1644C19.3275 33.0604 19.4047 32.9498 19.4849 32.8423C19.8079 32.4095 20.1308 31.9766 20.4538 31.5437C20.8663 30.9909 21.2788 30.4381 21.6913 29.8852C21.8651 29.6523 22.0389 29.4194 22.2127 29.1865C21.9826 29.0739 21.7574 28.9507 21.5408 28.8158C21.4546 28.7621 21.3693 28.7066 21.2886 28.6455C21.2422 28.6103 21.1825 28.5697 21.155 28.5176C21.6764 28.6859 22.1972 28.8533 22.724 29.0043C23.3216 29.1756 23.9191 29.3469 24.5166 29.5181C25.1423 29.6974 25.7679 29.8768 26.3935 30.0561C26.5218 30.0929 26.6501 30.1296 26.7784 30.1664C26.7901 30.1697 26.7967 30.1878 26.8029 30.1971C26.8297 30.2376 26.8566 30.278 26.8835 30.3185C27.1488 30.7177 27.414 31.117 27.6793 31.5163C28.0694 32.1035 28.4595 32.6907 28.8496 33.278C29.1947 33.7975 29.5398 34.3169 29.8848 34.8364C29.9874 34.9908 30.09 35.1452 30.1925 35.2996C30.2731 35.4208 30.3506 35.5412 30.4581 35.6438C30.8329 36.0013 31.4144 36.1032 31.8964 35.8956C32.3601 35.6958 32.6642 35.2408 32.6596 34.7528C32.6562 34.3938 32.4543 34.0727 32.2969 33.7574C32.0461 33.2551 31.7954 32.7529 31.5447 32.2507C31.2269 31.6143 30.9092 30.9779 30.5914 30.3414C30.3165 29.7907 30.0416 29.2402 29.7667 28.6895C29.6445 28.4447 29.5223 28.1999 29.4001 27.9552C29.2949 27.7445 29.1342 27.5603 28.9364 27.4243C28.7943 27.3267 28.6349 27.2652 28.4753 27.2C28.3285 27.1401 28.1818 27.0802 28.035 27.0202C27.399 26.7606 26.763 26.501 26.127 26.2413C25.9336 26.1624 25.7402 26.0834 25.5468 26.0045C25.5365 26.0003 25.5262 25.996 25.5159 25.9918C25.5161 25.9919 25.65 25.6805 25.6617 25.6531C25.7767 25.3834 25.8897 25.1129 26.0028 24.8424C26.1805 24.4175 26.3819 23.9945 26.5075 23.5532C26.6072 23.2028 26.6996 22.8506 26.794 22.4989C26.8202 22.5425 26.8245 22.6011 26.8301 22.6499C26.8401 22.7375 26.8429 22.8258 26.8439 22.9139C26.8465 23.1436 26.8344 23.3738 26.8132 23.6026C26.8028 23.7146 26.79 23.8265 26.7729 23.9378C26.7657 23.9847 26.7577 24.0315 26.7485 24.0781C26.7434 24.1038 26.7251 24.1392 26.7402 24.1622C26.8095 24.2679 26.879 24.3735 26.9482 24.4793C27.0683 24.663 27.1954 24.8297 27.3866 24.9522C27.6011 25.0897 27.8579 25.1596 28.1157 25.1518C28.2287 25.1484 28.3416 25.1449 28.4546 25.1415C29.0808 25.1226 29.7069 25.1037 30.3331 25.0848C31.0006 25.0646 31.6682 25.0444 32.3357 25.0243C32.5004 25.0194 32.6651 25.0143 32.8297 25.0094C33.1885 24.9986 33.5241 24.8514 33.7491 24.5786C34.0239 24.2453 34.0781 23.7782 33.8862 23.3949C33.6984 23.0192 33.2988 22.7692 32.8648 22.7562V22.7562Z" fill="currentcolor"/>
    <path d="M31.0922 15.0142C31.0922 15.9888 30.6113 16.94 29.7806 17.5093C28.9621 18.0702 27.8762 18.1864 26.9526 17.7995C26.0342 17.4146 25.3744 16.586 25.1751 15.6493C24.9685 14.678 25.254 13.6361 25.9597 12.9077C26.6433 12.2023 27.6686 11.8634 28.6577 12.0512C29.6354 12.2368 30.4496 12.9157 30.8354 13.7902C31.0059 14.1764 31.0922 14.5949 31.0922 15.0142V15.0142Z" fill="currentcolor"/>
</svg>

        
