<svg xmlns="http://www.w3.org/2000/svg" viewBox="0 0 49 48" fill="none">
    <path fill-rule="evenodd" clip-rule="evenodd" d="M33.5 5.5C33.5 4.67157 34.1716 4 35 4H37C38.9891 4 40.8968 4.79018 42.3033 6.1967C43.7098 7.60322 44.5 9.51088 44.5 11.5V13.5C44.5 14.3284 43.8284 15 43 15C42.1716 15 41.5 14.3284 41.5 13.5V11.5C41.5 10.3065 41.0259 9.16193 40.182 8.31802C39.3381 7.47411 38.1935 7 37 7H35C34.1716 7 33.5 6.32843 33.5 5.5ZM14 14.5C14.8284 14.5 15.5 15.1716 15.5 16V22.5H19.333V16C19.333 15.1716 20.0046 14.5 20.833 14.5C21.6614 14.5 22.333 15.1716 22.333 16V22.5H26.667V16C26.667 15.1716 27.3386 14.5 28.167 14.5C28.9954 14.5 29.667 15.1716 29.667 16V22.5H33.5V16C33.5 15.1716 34.1716 14.5 35 14.5C35.8284 14.5 36.5 15.1716 36.5 16V22.5H41C41.8284 22.5 42.5 23.1716 42.5 24C42.5 24.8284 41.8284 25.5 41 25.5H8C7.17157 25.5 6.5 24.8284 6.5 24C6.5 23.1716 7.17157 22.5 8 22.5H12.5V16C12.5 15.1716 13.1716 14.5 14 14.5ZM14 28.5C14.8284 28.5 15.5 29.1716 15.5 30V34C15.5 34.8284 14.8284 35.5 14 35.5C13.1716 35.5 12.5 34.8284 12.5 34V30C12.5 29.1716 13.1716 28.5 14 28.5ZM22.333 30C22.333 29.1716 21.6614 28.5 20.833 28.5C20.0046 28.5 19.333 29.1716 19.333 30V34C19.333 34.8284 20.0046 35.5 20.833 35.5C21.6614 35.5 22.333 34.8284 22.333 34V30ZM28.167 28.75C28.9954 28.75 29.667 29.4216 29.667 30.25V34C29.667 34.8285 28.9954 35.5 28.167 35.5C27.3386 35.5 26.667 34.8285 26.667 34V30.25C26.667 29.4216 27.3386 28.75 28.167 28.75ZM36.5 30.25C36.5 29.4216 35.8284 28.75 35 28.75C34.1716 28.75 33.5 29.4216 33.5 30.25V34C33.5 34.8285 34.1716 35.5 35 35.5C35.8284 35.5 36.5 34.8285 36.5 34V30.25ZM7.5 34.5C7.5 33.6716 6.82843 33 6 33C5.17157 33 4.5 33.6716 4.5 34.5V36.5C4.5 38.4891 5.29018 40.3968 6.6967 41.8033C8.10322 43.2098 10.0109 44 12 44H14C14.8284 44 15.5 43.3284 15.5 42.5C15.5 41.6716 14.8284 41 14 41H12C10.8065 41 9.66193 40.5259 8.81802 39.682C7.97411 38.8381 7.5 37.6935 7.5 36.5V34.5ZM8.81802 8.31802C9.66193 7.47411 10.8065 7 12 7H14C14.8284 7 15.5 6.32843 15.5 5.5C15.5 4.67157 14.8284 4 14 4H12C10.0109 4 8.10322 4.79018 6.6967 6.1967C5.29018 7.60322 4.5 9.51088 4.5 11.5V13.5C4.5 14.3284 5.17157 15 6 15C6.82843 15 7.5 14.3284 7.5 13.5V11.5C7.5 10.3065 7.97411 9.16193 8.81802 8.31802ZM43 33C43.8284 33 44.5 33.6716 44.5 34.5V36.5C44.5 38.4891 43.7098 40.3968 42.3033 41.8033C40.8968 43.2098 38.9891 44 37 44H35C34.1716 44 33.5 43.3284 33.5 42.5C33.5 41.6716 34.1716 41 35 41H37C38.1935 41 39.3381 40.5259 40.182 39.682C41.0259 38.8381 41.5 37.6935 41.5 36.5V34.5C41.5 33.6716 42.1716 33 43 33Z" fill="currentcolor"/>
</svg>
