<svg xmlns="http://www.w3.org/2000/svg" viewBox="0 0 44 44" fill="none">
  <path fill-rule="evenodd" clip-rule="evenodd" d="M12.4531 13.8303C12.4531 10.6115 15.9678 8.62608 18.7246 10.2876L28.9625 16.4577C31.6309 18.0659 31.6308 21.935 28.9625 23.5432L18.7246 29.7133C15.9678 31.3748 12.4531 29.3894 12.4531 26.1706V13.8303ZM15.4531 13.8303C15.4531 12.946 16.4187 12.4006 17.1761 12.857L27.414 19.0272C28.147 19.469 28.147 20.5319 27.414 20.9737L17.1761 27.1439C16.4187 27.6003 15.4531 27.0549 15.4531 26.1706V13.8303Z" fill="currentcolor"/>
  <path d="M38.8367 24.828C37.735 23.7248 35.815 23.7232 34.7117 24.828L33.735 25.8061C32.5983 26.9443 32.5983 28.797 33.735 29.9369L34.7117 30.9149L30.9317 34.7003L29.955 33.7189C28.8183 32.5806 26.9683 32.5823 25.8317 33.7189L24.855 34.6969C24.3033 35.2494 24 35.9837 24 36.7632C24 37.5443 24.3033 38.277 24.855 38.8277L29.1633 43.1421C29.715 43.6962 30.4467 44 31.2267 44C32.005 44 32.7383 43.6962 33.2883 43.1438L34.265 42.1658C35.4017 41.0275 35.4017 39.1749 34.265 38.0349L33.2883 37.0569L37.0683 33.2716L38.045 34.2496C38.6133 34.8188 39.36 35.1025 40.1067 35.1025C40.8533 35.1025 41.6 34.8171 42.1683 34.248L43.145 33.2699C43.6967 32.7225 44 31.9881 44 31.2087C44 30.4276 43.6967 29.6949 43.145 29.1441L38.8367 24.828Z" fill="currentcolor"/>
  <path d="M32 3H8C5.23858 3 3 5.23858 3 8V32C3 34.7614 5.23858 37 8 37H18.5C19.3284 37 20 37.6716 20 38.5C20 39.3284 19.3284 40 18.5 40H8C3.58172 40 0 36.4183 0 32V8C0 3.58172 3.58172 0 8 0H32C36.4183 0 40 3.58172 40 8V18.5C40 19.3284 39.3284 20 38.5 20C37.6716 20 37 19.3284 37 18.5V8C37 5.23858 34.7614 3 32 3Z" fill="currentcolor"/>
</svg>
