<svg viewBox="0 0 200 56" fill="none" xmlns="http://www.w3.org/2000/svg">    <rect x="0.5" y="0.5" width="199" height="55" rx="7.5" fill="black"/>    <rect x="0.5" y="0.5" width="199" height="55" rx="7.5" stroke="#A6A6A6"/>    <path d="M100.555 30.4513C97.1873 30.4513 94.436 32.9538 94.436 36.4066C94.436 39.8313 97.1873 42.3601 100.555 42.3601C103.93 42.3601 106.682 39.8313 106.682 36.4066C106.682 32.9538 103.93 30.4513 100.555 30.4513ZM100.555 40.0151C98.7073 40.0151 97.1174 38.5258 97.1174 36.4066C97.1174 34.2593 98.7073 32.7963 100.555 32.7963C102.403 32.7963 104 34.2593 104 36.4066C104 38.5258 102.403 40.0151 100.555 40.0151ZM87.2037 30.4513C83.8286 30.4513 81.0844 32.9538 81.0844 36.4066C81.0844 39.8313 83.8286 42.3601 87.2037 42.3601C90.577 42.3601 93.3229 39.8313 93.3229 36.4066C93.3229 32.9538 90.577 30.4513 87.2037 30.4513ZM87.2037 40.0151C85.3539 40.0151 83.7587 38.5258 83.7587 36.4066C83.7587 34.2593 85.3539 32.7963 87.2037 32.7963C89.0516 32.7963 90.6415 34.2593 90.6415 36.4066C90.6415 38.5258 89.0516 40.0151 87.2037 40.0151ZM71.3158 32.2766V34.8071H77.505C77.3239 36.2211 76.84 37.2606 76.0979 37.9851C75.1945 38.8601 73.7875 39.8313 71.3158 39.8313C67.5069 39.8313 64.5244 36.8301 64.5244 33.1113C64.5244 29.3926 67.5069 26.3913 71.3158 26.3913C73.3753 26.3913 74.8737 27.1771 75.9796 28.1956L77.8061 26.4123C76.2592 24.9703 74.2016 23.8626 71.3158 23.8626C66.0927 23.8626 61.7031 28.0118 61.7031 33.1113C61.7031 38.2108 66.0927 42.3601 71.3158 42.3601C74.1388 42.3601 76.2592 41.4571 77.9262 39.7631C79.6343 38.0953 80.1667 35.7503 80.1667 33.8568C80.1667 33.2688 80.1165 32.7281 80.0269 32.2766H71.3158ZM136.283 34.2383C135.78 32.9066 134.226 30.4513 131.06 30.4513C127.923 30.4513 125.312 32.8646 125.312 36.4066C125.312 39.7421 127.897 42.3601 131.361 42.3601C134.163 42.3601 135.78 40.6923 136.445 39.7211L134.365 38.3683C133.672 39.3588 132.727 40.0151 131.361 40.0151C130.004 40.0151 129.031 39.4078 128.407 38.2108L136.565 34.9156L136.283 34.2383ZM127.967 36.2211C127.897 33.9251 129.793 32.7491 131.152 32.7491C132.216 32.7491 133.12 33.2688 133.421 34.0126L127.967 36.2211ZM121.336 41.9978H124.018V24.4978H121.336V41.9978ZM116.945 31.7778H116.855C116.253 31.0813 115.104 30.4513 113.649 30.4513C110.595 30.4513 107.802 33.0693 107.802 36.4258C107.802 39.7631 110.595 42.3601 113.649 42.3601C115.104 42.3601 116.253 41.7248 116.855 41.0073H116.945V41.8613C116.945 44.1381 115.699 45.3613 113.69 45.3613C112.052 45.3613 111.035 44.2063 110.616 43.2351L108.284 44.1853C108.956 45.7638 110.736 47.7063 113.69 47.7063C116.834 47.7063 119.487 45.9003 119.487 41.5061V30.8136H116.945V31.7778ZM113.878 40.0151C112.03 40.0151 110.483 38.5048 110.483 36.4258C110.483 34.3276 112.03 32.7963 113.878 32.7963C115.699 32.7963 117.135 34.3276 117.135 36.4258C117.135 38.5048 115.699 40.0151 113.878 40.0151ZM148.837 24.4978H142.424V41.9978H145.098V35.3671H148.837C151.807 35.3671 154.72 33.2688 154.72 29.9316C154.72 26.5961 151.8 24.4978 148.837 24.4978ZM148.907 32.9328H145.098V26.9321H148.907C150.904 26.9321 152.044 28.5508 152.044 29.9316C152.044 31.2861 150.904 32.9328 148.907 32.9328ZM165.439 30.4181C163.506 30.4181 161.497 31.2511 160.671 33.0973L163.044 34.0686C163.555 33.0973 164.494 32.7823 165.487 32.7823C166.874 32.7823 168.281 33.5961 168.303 35.0328V35.2166C167.819 34.9436 166.783 34.5393 165.508 34.5393C162.952 34.5393 160.348 35.9131 160.348 38.4768C160.348 40.8218 162.442 42.3321 164.795 42.3321C166.595 42.3321 167.588 41.5393 168.211 40.6171H168.303V41.9698H170.886V35.2568C170.886 32.1541 168.512 30.4181 165.439 30.4181ZM165.116 40.0081C164.241 40.0081 163.022 39.5846 163.022 38.5258C163.022 37.1713 164.542 36.6516 165.858 36.6516C167.036 36.6516 167.588 36.9053 168.303 37.2396C168.093 38.8601 166.665 40.0081 165.116 40.0081ZM180.296 30.8013L177.222 38.3876H177.13L173.952 30.8013H171.068L175.843 41.4028L173.119 47.302H175.913L183.271 30.8013H180.296ZM156.19 41.9978H158.871V24.4978H156.19V41.9978Z" fill="white"/>    <path d="M70.8481 14.3396C70.8481 15.5086 70.4896 16.4449 69.7834 17.1431C68.9715 17.9709 67.914 18.3874 66.618 18.3874C65.3795 18.3874 64.322 17.9639 63.4544 17.1291C62.5851 16.2821 62.1514 15.2426 62.1514 13.9984C62.1514 12.7541 62.5851 11.7146 63.4544 10.8746C64.322 10.0329 65.3795 9.60938 66.618 9.60938C67.2346 9.60938 67.8225 9.73363 68.3836 9.96463C68.9428 10.1974 69.3981 10.5124 69.7279 10.9009L68.9786 11.6394C68.4033 10.9761 67.62 10.6489 66.618 10.6489C65.7147 10.6489 64.9314 10.9569 64.2664 11.5781C63.6086 12.2011 63.2788 13.0079 63.2788 13.9984C63.2788 14.9889 63.6086 15.8026 64.2664 16.4256C64.9314 17.0399 65.7147 17.3549 66.618 17.3549C67.577 17.3549 68.3836 17.0399 69.0199 16.4186C69.4393 16.0074 69.6777 15.4404 69.7404 14.7159H66.618V13.7044H70.7836C70.8338 13.9231 70.8481 14.1349 70.8481 14.3396Z" fill="white"/>    <path d="M77.458 10.831H73.5452V13.491H77.0727V14.5025H73.5452V17.1625H77.458V18.1933H72.4375V9.80029H77.458V10.831Z" fill="white"/>    <path d="M81.0123 18.1933H82.12V10.831H84.5219V9.80029H78.6123V10.831H81.0123V18.1933Z" fill="white"/>    <path d="M88.7998 18.1933V9.80029H89.9057V18.1933H88.7998Z" fill="white"/>    <path d="M93.7088 18.1933H94.8075V10.831H97.2165V9.80029H91.2998V10.831H93.7088V18.1933Z" fill="white"/>    <path fill-rule="evenodd" clip-rule="evenodd" d="M108.406 17.1151C107.558 17.9639 106.507 18.3874 105.255 18.3874C103.994 18.3874 102.944 17.9639 102.096 17.1151C101.25 16.2681 100.829 15.2286 100.829 13.9984C100.829 12.7681 101.25 11.7286 102.096 10.8816C102.944 10.0329 103.994 9.60938 105.255 9.60938C106.5 9.60938 107.551 10.0329 108.398 10.8886C109.252 11.7426 109.673 12.7751 109.673 13.9984C109.673 15.2286 109.252 16.2681 108.406 17.1151ZM102.915 16.4116C103.554 17.0399 104.33 17.3549 105.255 17.3549C106.172 17.3549 106.956 17.0399 107.586 16.4116C108.223 15.7834 108.545 14.9766 108.545 13.9984C108.545 13.0201 108.223 12.2134 107.586 11.5851C106.956 10.9569 106.172 10.6419 105.255 10.6419C104.33 10.6419 103.554 10.9569 102.915 11.5851C102.279 12.2134 101.957 13.0201 101.957 13.9984C101.957 14.9766 102.279 15.7834 102.915 16.4116Z" fill="white"/>    <path d="M111.225 9.80029V18.1933H112.323V12.9643L112.275 11.3438H112.323L116.7 18.1933H117.855V9.80029H116.749V14.7143L116.797 16.3278H116.749L112.569 9.80029H111.225Z" fill="white"/>    <path d="M17.8212 10.5539C17.4 10.9844 17.1562 11.6546 17.1562 12.5226V43.4836C17.1562 44.3516 17.4 45.0219 17.8212 45.4524L17.9252 45.5469L35.6951 28.2044V27.7949L17.9252 10.4524L17.8212 10.5539Z" fill="url(#paint0_linear_12560_639972)"/>    <path d="M41.612 33.9844L35.6953 28.2006V27.7911L41.6192 22.0074L41.7518 22.0826L48.7673 25.9799C50.7694 27.0859 50.7694 28.9059 48.7673 30.0189L41.7518 33.9091L41.612 33.9844Z" fill="url(#paint1_linear_12560_639972)"/>    <path d="M41.7507 33.9135L35.6942 28.0002L17.8203 45.453C18.4853 46.1355 19.5697 46.2177 20.8029 45.5352L41.7507 33.9135Z" fill="url(#paint2_linear_12560_639972)"/>    <path d="M41.7507 22.0868L20.8029 10.465C19.5697 9.78951 18.4853 9.87175 17.8203 10.5543L35.6942 28L41.7507 22.0868Z" fill="url(#paint3_linear_12560_639972)"/>    <defs>        <linearGradient id="paint0_linear_12560_639972" x1="34.1173" y1="43.806" x2="10.6287" y2="19.7483" gradientUnits="userSpaceOnUse">            <stop stop-color="#00A0FF"/>            <stop offset="0.0066" stop-color="#00A1FF"/>            <stop offset="0.2601" stop-color="#00BEFF"/>            <stop offset="0.5122" stop-color="#00D2FF"/>            <stop offset="0.7604" stop-color="#00DFFF"/>            <stop offset="1" stop-color="#00E3FF"/>        </linearGradient>        <linearGradient id="paint1_linear_12560_639972" x1="51.3744" y1="27.9939" x2="16.6779" y2="27.9939" gradientUnits="userSpaceOnUse">            <stop stop-color="#FFE000"/>            <stop offset="0.4087" stop-color="#FFBD00"/>            <stop offset="0.7754" stop-color="#FFA500"/>            <stop offset="1" stop-color="#FF9C00"/>        </linearGradient>        <linearGradient id="paint2_linear_12560_639972" x1="38.4573" y1="24.7857" x2="6.60485" y2="-7.83864" gradientUnits="userSpaceOnUse">            <stop stop-color="#FF3A44"/>            <stop offset="1" stop-color="#C31162"/>        </linearGradient>        <linearGradient id="paint3_linear_12560_639972" x1="13.3211" y1="55.7533" x2="27.5447" y2="41.1852" gradientUnits="userSpaceOnUse">            <stop stop-color="#32A071"/>            <stop offset="0.0685" stop-color="#2DA771"/>            <stop offset="0.4762" stop-color="#15CF74"/>            <stop offset="0.8009" stop-color="#06E775"/>            <stop offset="1" stop-color="#00F076"/>        </linearGradient>    </defs></svg>