<svg xmlns="http://www.w3.org/2000/svg" viewBox="0 0 200 56" fill="none">    <rect x="0.5" y="0.5" width="199" height="55" rx="7.5" fill="black"/>    <rect x="0.5" y="0.5" width="199" height="55" rx="7.5" stroke="#A6A6A6"/>    <path d="M127.349 42.7492C128.482 41.7538 129.046 40.4644 129.046 38.8796C129.046 37.5916 128.66 36.5122 127.886 35.6498C127.109 34.7846 125.902 34.03 124.257 33.3846C122.913 32.868 121.987 32.3892 121.478 31.9468C120.892 31.468 120.6 30.859 120.6 30.1226C120.6 29.4576 120.856 28.8962 121.366 28.4356C121.969 27.9204 122.81 27.6614 123.887 27.6614C125.25 27.6614 126.467 27.947 127.544 28.5182L128.31 26.085C127.157 25.4956 125.712 25.2002 123.973 25.2002C122.023 25.2002 120.464 25.6888 119.295 26.6674C118.122 27.6446 117.536 28.9004 117.536 30.432C117.536 32.7756 119.207 34.5578 122.553 35.7744C123.782 36.2182 124.662 36.6984 125.189 37.215C125.719 37.7316 125.983 38.3686 125.983 39.1246C125.983 39.973 125.663 40.6534 125.021 41.1602C124.377 41.667 123.479 41.9218 122.326 41.9218C120.719 41.9218 119.245 41.5242 117.901 40.7318L117.191 43.2196C118.439 43.9938 120.088 44.3802 122.144 44.3802C124.371 44.3802 126.104 43.837 127.349 42.7492Z" fill="white"/>    <path fill-rule="evenodd" clip-rule="evenodd" d="M76.3997 44.1048H79.6606L73.4791 25.4736H69.6797L63.5283 44.1048H66.7031L68.4046 38.6322H74.6134L76.3997 44.1048ZM72.4596 31.4712L74.075 36.3362H68.9445L70.5312 31.4712C70.9476 29.9242 71.2506 28.7538 71.4387 27.9614H71.4961C71.9685 29.8038 72.2887 30.9742 72.4596 31.4712Z" fill="white"/>    <path fill-rule="evenodd" clip-rule="evenodd" d="M93.5804 42.6399C94.8468 41.3141 95.4801 39.5081 95.4801 37.2233C95.4801 35.1779 94.9373 33.5287 93.8489 32.2743C92.7633 31.0213 91.4064 30.3955 89.781 30.3955C87.7018 30.3955 86.1525 31.1963 85.1316 32.8007H85.0741L84.9032 30.6713H82.2109C82.2856 32.1833 82.3244 33.6575 82.3244 35.0939V49.5797H85.3857V42.5027H85.4431C86.2372 43.7739 87.541 44.4095 89.356 44.4095C91.0374 44.4095 92.446 43.8201 93.5804 42.6399ZM91.4538 34.0985C92.0598 34.9469 92.3613 36.0249 92.3613 37.3325C92.3613 38.7521 92.0397 39.8945 91.3964 40.7611C90.7545 41.6263 89.8571 42.0603 88.7041 42.0603C87.7219 42.0603 86.9236 41.7243 86.309 41.0509C85.6944 40.3775 85.3871 39.5529 85.3871 38.5757V36.3357C85.3871 36.0977 85.4345 35.7953 85.5293 35.4257C85.7174 34.6333 86.1194 33.9935 86.734 33.5035C87.3471 33.0177 88.0335 32.7713 88.7888 32.7713C89.903 32.7713 90.7919 33.2137 91.4538 34.0985Z" fill="white"/>    <path fill-rule="evenodd" clip-rule="evenodd" d="M111.327 37.2233C111.327 39.5081 110.694 41.3141 109.426 42.6399C108.293 43.8201 106.885 44.4095 105.203 44.4095C103.388 44.4095 102.084 43.7739 101.292 42.5027H101.234V49.5797H98.173V35.0939C98.173 33.6575 98.1342 32.1833 98.0596 30.6713H100.752L100.923 32.8007H100.98C102 31.1963 103.549 30.3955 105.63 30.3955C107.254 30.3955 108.611 31.0213 109.699 32.2743C110.783 33.5287 111.327 35.1779 111.327 37.2233ZM108.208 37.3325C108.208 36.0249 107.906 34.9469 107.3 34.0985C106.638 33.2137 105.752 32.7713 104.636 32.7713C103.879 32.7713 103.194 33.0177 102.58 33.5035C101.965 33.9935 101.565 34.6333 101.376 35.4257C101.283 35.7953 101.234 36.0977 101.234 36.3357V38.5757C101.234 39.5529 101.542 40.3775 102.153 41.0509C102.768 41.7229 103.566 42.0603 104.551 42.0603C105.704 42.0603 106.602 41.6263 107.244 40.7611C107.887 39.8945 108.208 38.7521 108.208 37.3325Z" fill="white"/>    <path d="M139.169 32.9121H135.794V39.4347C135.794 41.0937 136.389 41.9225 137.581 41.9225C138.128 41.9225 138.581 41.8763 138.94 41.7839L139.025 44.0505C138.422 44.2703 137.628 44.3809 136.644 44.3809C135.435 44.3809 134.491 44.0211 133.809 43.3029C133.129 42.5833 132.788 41.3765 132.788 39.6811V32.9093H130.777V30.6693H132.788V28.2095L135.794 27.3247V30.6693H139.169V32.9121Z" fill="white"/>    <path fill-rule="evenodd" clip-rule="evenodd" d="M152.578 42.3627C153.787 41.0369 154.392 39.3415 154.392 37.2765C154.392 35.2675 153.807 33.6281 152.632 32.3583C151.404 31.0493 149.778 30.3955 147.756 30.3955C145.658 30.3955 143.989 31.0591 142.753 32.3863C141.514 33.7121 140.896 35.4173 140.896 37.4991C140.896 39.4885 141.497 41.1391 142.697 42.4467C143.898 43.7543 145.507 44.4081 147.529 44.4081C149.627 44.4081 151.31 43.7277 152.578 42.3627ZM150.395 34.1853C150.945 35.0715 151.216 36.1341 151.216 37.3731C151.216 38.6107 150.932 39.6845 150.368 40.5875C149.706 41.6767 148.788 42.2227 147.619 42.2227C146.426 42.2227 145.501 41.6879 144.839 40.6155C144.29 39.7307 144.018 38.6681 144.018 37.4291C144.018 36.1523 144.29 35.0729 144.839 34.1853C145.481 33.1143 146.416 32.5781 147.647 32.5781C148.836 32.5781 149.753 33.1129 150.395 34.1853Z" fill="white"/>    <path d="M164.345 33.2963C164.042 33.2417 163.719 33.2137 163.38 33.2137C162.303 33.2137 161.47 33.6099 160.884 34.4037C160.374 35.1037 160.119 35.9885 160.119 37.0567V44.1057H157.059L157.088 34.9021C157.088 33.3537 157.049 31.9439 156.973 30.6727H159.639L159.751 33.2431H159.836C160.159 32.3597 160.669 31.6485 161.367 31.1151C162.049 30.6349 162.785 30.3955 163.579 30.3955C163.862 30.3955 164.118 30.4151 164.345 30.4501V33.2963Z" fill="white"/>    <path fill-rule="evenodd" clip-rule="evenodd" d="M177.923 38.1068C177.999 37.7386 178.035 37.2878 178.035 36.753C178.035 35.0772 177.629 33.666 176.821 32.525C175.8 31.0886 174.296 30.3704 172.31 30.3704C170.289 30.3704 168.682 31.0886 167.493 32.525C166.357 33.8704 165.79 35.5574 165.79 37.5832C165.79 39.6468 166.4 41.2918 167.618 42.5168C168.838 43.7418 170.516 44.355 172.652 44.355C174.428 44.355 175.968 44.0792 177.271 43.5248L176.792 41.4528C175.676 41.877 174.436 42.0884 173.076 42.0884C171.847 42.0884 170.846 41.7748 170.072 41.149C169.219 40.449 168.775 39.434 168.739 38.1068H177.923ZM174.522 33.6842C174.937 34.3296 175.136 35.094 175.116 35.9788V35.9774H168.739C168.833 35.0758 169.136 34.3016 169.645 33.6562C170.267 32.8442 171.081 32.4396 172.082 32.4396C173.178 32.4396 173.992 32.854 174.522 33.6842Z" fill="white"/>    <path d="M103.202 18.8041H104.706V9.17627H103.202V18.8041Z" fill="white"/>    <path fill-rule="evenodd" clip-rule="evenodd" d="M73.0603 14.0124C73.0603 15.6602 72.5534 16.9006 71.5411 17.7336C70.6034 18.5022 69.2709 18.8872 67.545 18.8872C66.6892 18.8872 65.9569 18.8508 65.3438 18.778V9.77463C66.1435 9.64863 67.0051 9.58423 67.9355 9.58423C69.5797 9.58423 70.8188 9.93283 71.6545 10.63C72.5907 11.4182 73.0603 12.5452 73.0603 14.0124ZM71.4736 14.053C71.4736 12.9848 71.1836 12.1658 70.6034 11.5946C70.0233 11.0248 69.1762 10.7392 68.0605 10.7392C67.5866 10.7392 67.1831 10.77 66.8486 10.8344V17.679C67.0338 17.707 67.3727 17.7196 67.8652 17.7196C69.0168 17.7196 69.9056 17.4074 70.5317 16.783C71.1577 16.1586 71.4736 15.2486 71.4736 14.053Z" fill="white"/>    <path fill-rule="evenodd" clip-rule="evenodd" d="M81.4743 15.4499C81.4743 16.4649 81.177 17.2965 80.5826 17.9489C79.9594 18.6195 79.1338 18.9541 78.1028 18.9541C77.1091 18.9541 76.318 18.6335 75.7278 17.9895C75.1391 17.3469 74.8447 16.5363 74.8447 15.5591C74.8447 14.5371 75.1477 13.6985 75.7565 13.0475C76.3653 12.3965 77.1838 12.0703 78.2148 12.0703C79.2084 12.0703 80.0068 12.3909 80.6113 13.0335C81.1857 13.6579 81.4743 14.4643 81.4743 15.4499ZM79.9134 15.4975C79.9134 14.8885 79.7785 14.3663 79.51 13.9309C79.1941 13.4045 78.7446 13.1413 78.1602 13.1413C77.5557 13.1413 77.0962 13.4045 76.7803 13.9309C76.5104 14.3663 76.3768 14.8969 76.3768 15.5241C76.3768 16.1331 76.5118 16.6553 76.7803 17.0907C77.1063 17.6171 77.56 17.8803 78.1459 17.8803C78.7202 17.8803 79.1711 17.6129 79.4956 17.0767C79.7742 16.6329 79.9134 16.1065 79.9134 15.4975Z" fill="white"/>    <path d="M91.2769 12.2065H92.754L90.6365 18.8047H89.258L88.3807 15.9389C88.1581 15.2235 87.9772 14.5123 87.8365 13.8067H87.8092C87.6785 14.5319 87.4976 15.2417 87.265 15.9389L86.3331 18.8047H84.9389L82.9473 12.2051H84.4937L85.2591 15.3425C85.4443 16.0845 85.5965 16.7915 85.7185 17.4607H85.7458C85.8578 16.9091 86.0431 16.2063 86.3044 15.3565L87.265 12.2065H88.4913L89.4117 15.2893C89.6342 16.0411 89.8152 16.7649 89.9544 17.4621H89.9961C90.098 16.7831 90.2517 16.0593 90.4556 15.2893L91.2769 12.2065Z" fill="white"/>    <path d="M100.556 18.8044H99.0513V15.0244C99.0513 13.8596 98.5976 13.2772 97.6872 13.2772C97.2407 13.2772 96.8803 13.4368 96.6003 13.7574C96.3231 14.078 96.1824 14.456 96.1824 14.8886V18.803H94.6776V14.0906C94.6776 13.511 94.6589 12.8824 94.623 12.202H95.9455L96.0159 13.2338H96.0575C96.2327 12.9132 96.494 12.6486 96.8372 12.4372C97.245 12.1908 97.7016 12.0662 98.2013 12.0662C98.8331 12.0662 99.3586 12.265 99.7765 12.664C100.296 13.1526 100.556 13.882 100.556 14.8508V18.8044Z" fill="white"/>    <path fill-rule="evenodd" clip-rule="evenodd" d="M113.563 15.4499C113.563 16.4649 113.266 17.2965 112.671 17.9489C112.048 18.6195 111.221 18.9541 110.192 18.9541C109.197 18.9541 108.405 18.6335 107.817 17.9895C107.228 17.3469 106.934 16.5363 106.934 15.5591C106.934 14.5371 107.237 13.6985 107.845 13.0475C108.454 12.3965 109.273 12.0703 110.302 12.0703C111.297 12.0703 112.094 12.3909 112.7 13.0335C113.275 13.6579 113.563 14.4643 113.563 15.4499ZM112.001 15.4975C112.001 14.8885 111.866 14.3663 111.597 13.9309C111.283 13.4045 110.832 13.1413 110.249 13.1413C109.643 13.1413 109.184 13.4045 108.869 13.9309C108.599 14.3663 108.466 14.8969 108.466 15.5241C108.466 16.1331 108.601 16.6553 108.869 17.0907C109.195 17.6171 109.649 17.8803 110.235 17.8803C110.809 17.8803 111.259 17.6129 111.583 17.0767C111.863 16.6329 112.001 16.1065 112.001 15.4975Z" fill="white"/>    <path fill-rule="evenodd" clip-rule="evenodd" d="M119.496 18.8043H120.847C120.782 18.4151 120.749 17.8901 120.749 17.2307V14.8003C120.749 12.9803 119.862 12.0703 118.093 12.0703C117.177 12.0703 116.4 12.2607 115.771 12.6401L116.077 13.6033C116.585 13.2785 117.174 13.1147 117.842 13.1147C118.779 13.1147 119.247 13.5487 119.247 14.4181V14.5413C117.994 14.5315 117.02 14.7401 116.328 15.1657C115.635 15.5913 115.29 16.2059 115.29 17.0123C115.29 17.5457 115.467 17.9951 115.82 18.3563C116.209 18.7539 116.726 18.9541 117.365 18.9541C118.221 18.9541 118.88 18.6503 119.342 18.0441H119.384L119.496 18.8043ZM119.285 15.5185V16.5363C119.285 16.6357 119.276 16.7225 119.26 16.7939C119.196 17.1117 119.022 17.3707 118.739 17.5751C118.458 17.7781 118.149 17.8803 117.819 17.8803C117.524 17.8803 117.277 17.7949 117.083 17.6227C116.89 17.4505 116.795 17.1929 116.795 16.8485C116.795 15.9343 117.625 15.4905 119.285 15.5185Z" fill="white"/>    <path fill-rule="evenodd" clip-rule="evenodd" d="M129.398 18.8041H128.063L127.992 17.7443H127.951C127.524 18.5507 126.798 18.9539 125.777 18.9539C124.961 18.9539 124.282 18.6417 123.743 18.0173C123.205 17.3929 122.937 16.5823 122.937 15.5869C122.937 14.5187 123.228 13.6535 123.814 12.9927C124.381 12.3767 125.076 12.0687 125.903 12.0687C126.812 12.0687 127.448 12.3669 127.81 12.9647H127.839V9.17627H129.345V17.0261C129.345 17.6687 129.362 18.2609 129.398 18.8041ZM127.839 16.0209V14.9205C127.839 14.7301 127.824 14.5761 127.797 14.4585C127.712 14.1057 127.53 13.8089 127.253 13.5695C126.973 13.3301 126.635 13.2097 126.246 13.2097C125.685 13.2097 125.245 13.4267 124.922 13.8621C124.602 14.2975 124.44 14.8533 124.44 15.5323C124.44 16.1847 124.594 16.7139 124.902 17.1213C125.228 17.5553 125.668 17.7723 126.218 17.7723C126.711 17.7723 127.106 17.5917 127.406 17.2291C127.697 16.8945 127.839 16.4913 127.839 16.0209Z" fill="white"/>    <path fill-rule="evenodd" clip-rule="evenodd" d="M141.377 17.9489C141.971 17.2965 142.268 16.4649 142.268 15.4499C142.268 14.4643 141.98 13.6579 141.405 13.0335C140.802 12.3909 140.002 12.0703 139.01 12.0703C137.978 12.0703 137.159 12.3965 136.55 13.0475C135.942 13.6985 135.639 14.5371 135.639 15.5591C135.639 16.5363 135.933 17.3469 136.522 17.9895C137.113 18.6335 137.905 18.9541 138.897 18.9541C139.929 18.9541 140.753 18.6195 141.377 17.9489ZM140.305 13.9309C140.574 14.3663 140.709 14.8885 140.709 15.4975C140.709 16.1065 140.568 16.6329 140.291 17.0767C139.966 17.6129 139.514 17.8803 138.94 17.8803C138.354 17.8803 137.9 17.6171 137.574 17.0907C137.306 16.6553 137.171 16.1331 137.171 15.5241C137.171 14.8969 137.304 14.3663 137.574 13.9309C137.892 13.4045 138.351 13.1413 138.954 13.1413C139.54 13.1413 139.988 13.4045 140.305 13.9309Z" fill="white"/>    <path d="M150.36 18.8044H148.857V15.0244C148.857 13.8596 148.403 13.2772 147.491 13.2772C147.045 13.2772 146.684 13.4368 146.406 13.7574C146.127 14.078 145.988 14.456 145.988 14.8886V18.803H144.482V14.0906C144.482 13.511 144.465 12.8824 144.429 12.202H145.75L145.82 13.2338H145.862C146.038 12.9132 146.3 12.6486 146.641 12.4372C147.051 12.1908 147.506 12.0662 148.007 12.0662C148.637 12.0662 149.163 12.265 149.581 12.664C150.102 13.1526 150.36 13.882 150.36 14.8508V18.8044Z" fill="white"/>    <path d="M158.831 13.3029H160.486V12.2025H158.829V10.5603L157.355 10.9943V12.2039H156.365V13.3029H157.355V16.6307C157.355 17.4637 157.521 18.0573 157.857 18.4101C158.192 18.7629 158.654 18.9393 159.249 18.9393C159.73 18.9393 160.12 18.8847 160.417 18.7755L160.379 17.6625C160.202 17.7087 159.978 17.7311 159.708 17.7311C159.125 17.7311 158.831 17.3237 158.831 16.5089V13.3029Z" fill="white"/>    <path d="M168.453 18.8041H166.947V15.0521C166.947 13.8691 166.493 13.2769 165.584 13.2769C164.886 13.2769 164.409 13.6199 164.148 14.3059C164.103 14.4501 164.078 14.6265 164.078 14.8337V18.8027H162.574V9.17627H164.078V13.1537H164.106C164.58 12.4299 165.259 12.0687 166.14 12.0687C166.763 12.0687 167.278 12.2675 167.687 12.6665C168.197 13.1635 168.453 13.9027 168.453 14.8799V18.8041Z" fill="white"/>    <path fill-rule="evenodd" clip-rule="evenodd" d="M176.615 15.8575C176.651 15.6769 176.671 15.4557 176.671 15.1925C176.671 14.3693 176.472 13.6763 176.068 13.1163C175.568 12.4107 174.829 12.0579 173.855 12.0579C172.86 12.0579 172.072 12.4107 171.489 13.1163C170.93 13.7771 170.653 14.6059 170.653 15.6013C170.653 16.6149 170.951 17.4227 171.551 18.0247C172.148 18.6267 172.974 18.9277 174.022 18.9277C174.896 18.9277 175.652 18.7919 176.294 18.5203L176.058 17.5011C175.51 17.7097 174.901 17.8133 174.233 17.8133C173.63 17.8133 173.137 17.6593 172.755 17.3513C172.338 17.0069 172.122 16.5099 172.102 15.8575H176.615ZM174.944 13.6861C175.148 14.0025 175.247 14.3777 175.235 14.8131H172.102C172.151 14.3693 172.299 13.9899 172.549 13.6721C172.855 13.2731 173.255 13.0743 173.746 13.0743C174.285 13.0743 174.682 13.2787 174.944 13.6861Z" fill="white"/>    <path d="M45.8929 27.6969C45.8512 23.1847 49.6822 20.9895 49.8574 20.8873C47.6877 17.8031 44.3249 17.3817 43.1431 17.3481C40.3187 17.0583 37.579 18.9959 36.1402 18.9959C34.6728 18.9959 32.4572 17.3761 30.0693 17.4237C26.9964 17.4699 24.1218 19.2045 22.5452 21.8981C19.2914 27.3903 21.7181 35.4613 24.8354 39.9007C26.3948 42.0749 28.217 44.5025 30.602 44.4171C32.9353 44.3233 33.8069 42.9667 36.6227 42.9667C39.4127 42.9667 40.2311 44.4171 42.6635 44.3625C45.1677 44.3233 46.7443 42.1785 48.2492 39.9847C50.0512 37.4927 50.7749 35.0385 50.8036 34.9125C50.7448 34.8929 45.9402 33.1051 45.8929 27.6969Z" fill="white"/>    <path d="M41.298 14.4277C42.553 12.8975 43.4116 10.8157 43.1733 8.70312C41.3569 8.78152 39.0853 9.92813 37.7772 11.4247C36.6198 12.7435 35.586 14.9051 35.8531 16.9379C37.8935 17.0863 39.9884 15.9341 41.298 14.4277Z" fill="white"/></svg>