<svg xmlns="http://www.w3.org/2000/svg" viewBox="0 0 25 16" fill="none">
  <path fill-rule="evenodd" clip-rule="evenodd" d="M3.0868 5.93934L3.0868 5.93934C2.50101 6.52513 2.50101 7.47487 3.0868 8.06066C3.67259 8.64645 4.62233 8.64645 5.20812 8.06066C5.79391 7.47487 5.79391 6.52513 5.20812 5.93934C4.62233 5.35355 3.67259 5.35355 3.0868 5.93934ZM2.02614 4.87868C0.854567 6.05025 0.854567 7.94974 2.02614 9.12132C3.19771 10.2929 5.09721 10.2929 6.26878 9.12132C7.44035 7.94975 7.44035 6.05026 6.26878 4.87868C5.09721 3.70711 3.19772 3.70711 2.02614 4.87868Z" fill="currentcolor"/>
  <path fill-rule="evenodd" clip-rule="evenodd" d="M3.54817 12.5C2.43641 12.5 1.64746 13.3125 1.64746 14.1833V15.25C1.64746 15.6642 1.31167 16 0.897461 16C0.483247 16 0.147461 15.6642 0.147461 15.25V14.1833C0.147461 12.3658 1.73143 11 3.54817 11H4.39746C4.81167 11 5.14746 11.3358 5.14746 11.75C5.14746 12.1642 4.81167 12.5 4.39746 12.5H3.54817Z" fill="currentcolor"/>
  <path fill-rule="evenodd" clip-rule="evenodd" d="M21.2081 5.93934L21.2081 5.93934C21.7939 6.52513 21.7939 7.47487 21.2081 8.06066C20.6223 8.64645 19.6726 8.64645 19.0868 8.06066C18.501 7.47487 18.501 6.52513 19.0868 5.93934C19.6726 5.35355 20.6223 5.35355 21.2081 5.93934ZM22.2688 4.87868C23.4404 6.05025 23.4404 7.94974 22.2688 9.12132C21.0972 10.2929 19.1977 10.2929 18.0261 9.12132C16.8546 7.94975 16.8546 6.05026 18.0261 4.87868C19.1977 3.70711 21.0972 3.70711 22.2688 4.87868Z" fill="currentcolor"/>
  <path fill-rule="evenodd" clip-rule="evenodd" d="M20.7467 12.5C21.8585 12.5 22.6475 13.3125 22.6475 14.1833V15.25C22.6475 15.6642 22.9832 16 23.3975 16C23.8117 16 24.1475 15.6642 24.1475 15.25V14.1833C24.1475 12.3658 22.5635 11 20.7467 11H19.8975C19.4832 11 19.1475 11.3358 19.1475 11.75C19.1475 12.1642 19.4832 12.5 19.8975 12.5H20.7467Z" fill="currentcolor"/>
  <path fill-rule="evenodd" clip-rule="evenodd" d="M13.7355 0.327589C12.2742 -0.303811 10.5131 -0.0224837 9.31903 1.17157C7.75694 2.73368 7.75694 5.26634 9.31903 6.82843C10.8811 8.39052 13.4138 8.39052 14.9759 6.82843C16.1699 5.63437 16.4513 3.87321 15.8199 2.41194C15.6253 1.96153 15.3439 1.53961 14.9759 1.17157C14.6078 0.80353 14.1859 0.522203 13.7355 0.327589ZM13.9152 5.76777C13.9152 5.76777 13.9152 5.76777 13.9152 5.76777C12.9389 6.74407 11.356 6.74408 10.3797 5.76777C9.40339 4.79147 9.40338 3.20855 10.3797 2.23223C11.356 1.25593 12.9389 1.25592 13.9152 2.23223C14.8915 3.20854 14.8915 4.79145 13.9152 5.76777Z" fill="currentcolor"/>
  <path fill-rule="evenodd" clip-rule="evenodd" d="M6.14746 13.5316C6.14746 11.0998 7.96039 9.00781 10.3388 9.00781H13.9561C16.3345 9.00781 18.1475 11.0998 18.1475 13.5316V15.2578C18.1475 15.672 17.8117 16.0078 17.3975 16.0078C16.9832 16.0078 16.6475 15.672 16.6475 15.2578V13.5316C16.6475 11.795 15.3789 10.5078 13.9561 10.5078H10.3388C8.916 10.5078 7.64746 11.795 7.64746 13.5316V15.2578C7.64746 15.672 7.31167 16.0078 6.89746 16.0078C6.48325 16.0078 6.14746 15.672 6.14746 15.2578V13.5316Z" fill="currentcolor"/>
</svg>
