<svg width="49" height="48" viewBox="0 0 49 48" fill="none" xmlns="http://www.w3.org/2000/svg">
<path fill-rule="evenodd" clip-rule="evenodd" d="M7.16577 9.5C7.16577 6.46243 9.62821 4 12.6658 4H36.6658C39.7033 4 42.1658 6.46243 42.1658 9.5V30V35.5V42H34.6658V44.5C34.6658 45.0078 34.4089 45.4811 33.9831 45.7577C33.5574 46.0344 33.0206 46.0769 32.5566 45.8707L28.6658 44.1415L24.775 45.8707C24.311 46.0769 23.7742 46.0344 23.3484 45.7577C22.9226 45.4811 22.6658 45.0078 22.6658 44.5V42H12.6658C9.62821 42 7.16577 39.5376 7.16577 36.5V35.5V9.5ZM10.1658 35.5V36.5C10.1658 37.8807 11.2851 39 12.6658 39H22.6658V36.5C22.6658 35.6716 23.3373 35 24.1658 35H33.1658C33.9942 35 34.6658 35.6716 34.6658 36.5V39H39.1658V35.5V33H12.6658C11.2851 33 10.1658 34.1193 10.1658 35.5ZM39.1658 30V9.5C39.1658 8.11929 38.0465 7 36.6658 7H18.1658L18.1658 30H39.1658ZM15.1658 30H12.6658C11.7655 30 10.9158 30.2163 10.1658 30.5997V9.5C10.1658 8.11929 11.2851 7 12.6658 7H15.1658L15.1658 30ZM25.6658 42.1919V38H31.6658V42.1919L29.275 41.1293C28.8871 40.9569 28.4444 40.9569 28.0566 41.1293L25.6658 42.1919Z" fill="#8656ED"/>
</svg>
