<svg width="49" height="48" viewBox="0 0 49 48" fill="none" xmlns="http://www.w3.org/2000/svg">
<path fill-rule="evenodd" clip-rule="evenodd" d="M9.152 10.818C9.99592 9.97411 11.1405 9.5 12.334 9.5H36.334C37.5275 9.5 38.6721 9.97411 39.516 10.818C40.3599 11.6619 40.834 12.8065 40.834 14V22C40.834 22.8284 41.5056 23.5 42.334 23.5C43.1624 23.5 43.834 22.8284 43.834 22V14C43.834 12.0109 43.0438 10.1032 41.6373 8.6967C40.2308 7.29018 38.3231 6.5 36.334 6.5H12.334C10.3449 6.5 8.43721 7.29018 7.03068 8.6967C5.62416 10.1032 4.83398 12.0109 4.83398 14V30C4.83398 31.9891 5.62416 33.8968 7.03068 35.3033C8.43721 36.7098 10.3449 37.5 12.334 37.5H20.334C21.1624 37.5 21.834 36.8284 21.834 36C21.834 35.1716 21.1624 34.5 20.334 34.5H12.334C11.1405 34.5 9.99592 34.0259 9.152 33.182C8.30809 32.3381 7.83398 31.1935 7.83398 30V14C7.83398 12.8065 8.30809 11.6619 9.152 10.818ZM13.834 14.5C13.0056 14.5 12.334 15.1716 12.334 16C12.334 16.8284 13.0056 17.5 13.834 17.5H26.834C27.6624 17.5 28.334 16.8284 28.334 16C28.334 15.1716 27.6624 14.5 26.834 14.5H13.834ZM44.1343 36.0266L44.3381 34.1589L43.0827 33.6914L42.9686 32.6028L44.0426 31.8585L43.4516 30.0728L42.1779 30.1404L41.6358 29.1891L42.3165 28.0615L41.0672 26.6715L39.9219 27.2578L39.0375 26.6058L39.2046 25.3039L37.5172 24.5433L36.7428 25.4987C36.3899 25.3984 36.0312 25.3196 35.6688 25.2629L35.2959 24H33.4292L33.097 25.2486C32.7333 25.3002 32.3732 25.3748 32.0189 25.4721L31.1671 24.4695L29.4593 25.2281L29.6631 26.5115C29.3516 26.7073 29.0534 26.9238 28.7705 27.1594L27.5865 26.5915L26.3332 27.9836L27.0362 29.0764C26.9445 29.2137 26.8569 29.3532 26.7734 29.4967C26.755 29.4967 26.6959 29.6094 26.7102 29.6053C26.6287 29.7447 26.5533 29.8862 26.4799 30.0297L25.1695 29.9949L24.5867 31.7806L25.6688 32.49C25.6055 32.8541 25.5647 33.2218 25.5465 33.591L24.334 34.0953L24.5235 35.9631L25.7992 36.1681C25.8461 36.3526 25.8971 36.5372 25.9562 36.7217C26.0153 36.9062 26.0703 37.0579 26.1335 37.2219L25.2307 38.1773L26.1599 39.8073L27.4051 39.4751C27.633 39.7632 27.878 40.037 28.1388 40.2952L27.7026 41.5459L29.2087 42.653L30.2154 41.8329C30.5399 42.0054 30.8748 42.1574 31.218 42.2881L31.3199 43.6043L33.154 44L33.743 42.8437C34.1095 42.8662 34.477 42.8662 34.8435 42.8437L35.4671 44L37.3012 43.6146L37.3725 42.3147C37.717 42.1885 38.0532 42.0406 38.3792 41.8719L39.4186 42.6735L40.9327 41.5746L40.4722 40.3608C40.7357 40.1035 40.9828 39.8295 41.2119 39.5407L42.4876 39.8483L43.4251 38.2245L42.5141 37.3039C42.6506 36.9609 42.7656 36.6096 42.8585 36.2522L44.1343 36.0266ZM38.2021 36.5229H35.504V35.4977H36.1153V33.1256H35.504V32.1005H36.1153V31.7274C36.1153 30.9073 36.5698 30.0667 37.821 30.0667C38.4895 30.0667 38.9704 30.2717 39.2781 30.6818L38.2021 31.4998C38.1002 31.1554 38.0452 31.0241 37.8496 31.0241C37.6539 31.0241 37.5256 31.2292 37.5256 31.6392V32.1149H38.2021V33.14H37.5256V35.5203H38.2021V36.5229ZM32.555 33.2018C32.017 33.2018 31.7113 33.6303 31.7113 34.3581C31.7113 35.0859 32.0455 35.5329 32.5733 35.5329C33.1011 35.5329 33.417 35.0859 33.417 34.3396C33.417 33.6303 33.093 33.2018 32.555 33.2018ZM32.555 38.4996H29.5613V37.4744H30.3031V33.1259H29.5613V32.1008H31.7215V32.6605C31.8716 32.4656 32.064 32.3079 32.2841 32.1995C32.5042 32.0911 32.7461 32.0349 32.9911 32.0352C34.0488 32.0352 34.8558 33.0254 34.8558 34.3314C34.8558 35.6743 34.0753 36.6174 32.9728 36.6174C32.7373 36.6199 32.5039 36.572 32.2882 36.4769C32.0725 36.3819 31.8793 36.2418 31.7215 36.0659V37.4744H32.555V38.4996ZM42.1149 41.0848H42.2858C42.377 41.0848 42.4719 41.0848 42.4719 41.2147C42.4719 41.3447 42.3656 41.3523 42.2516 41.3523H42.1149V41.0848ZM41.982 41.8223H42.1149V41.4402H42.2516L42.4833 41.8223H42.6239L42.3808 41.4402C42.4108 41.4413 42.4408 41.4361 42.4687 41.4249C42.4966 41.4137 42.522 41.3968 42.543 41.3752C42.5641 41.3537 42.5805 41.3279 42.5911 41.2996C42.6018 41.2713 42.6065 41.2411 42.6049 41.2109C42.6049 41.0466 42.5099 40.9702 42.3086 40.9702H41.982V41.8223ZM41.5376 41.3981C41.5361 41.5428 41.5773 41.6847 41.6561 41.8057C41.7349 41.9267 41.8477 42.0214 41.9801 42.0778C42.1125 42.1343 42.2586 42.1498 42.3998 42.1225C42.5411 42.0952 42.671 42.0263 42.7733 41.9246C42.8755 41.8228 42.9453 41.6928 42.9739 41.551C43.0025 41.4092 42.9886 41.2621 42.9339 41.1283C42.8793 40.9945 42.7863 40.88 42.6668 40.7995C42.5474 40.719 42.4068 40.676 42.263 40.676C42.1683 40.6755 42.0743 40.6937 41.9866 40.7297C41.8988 40.7658 41.819 40.8188 41.7516 40.8859C41.6843 40.953 41.6307 41.0327 41.594 41.1206C41.5572 41.2085 41.5381 41.3028 41.5376 41.3981ZM41.6667 41.3981C41.6712 41.2806 41.7099 41.1669 41.7781 41.0713C41.8463 40.9757 41.9409 40.9024 42.0502 40.8605C42.1595 40.8186 42.2786 40.8099 42.3927 40.8356C42.5068 40.8613 42.6109 40.9202 42.6921 41.0049C42.7732 41.0896 42.8278 41.1965 42.849 41.3122C42.8702 41.4279 42.8572 41.5473 42.8114 41.6556C42.7657 41.7639 42.6893 41.8563 42.5918 41.9213C42.4943 41.9862 42.38 42.0209 42.263 42.021C42.1826 42.0216 42.1029 42.0057 42.0288 41.9743C41.9547 41.9429 41.8877 41.8967 41.8319 41.8384C41.7761 41.7802 41.7327 41.7111 41.7043 41.6354C41.6759 41.5597 41.6631 41.479 41.6667 41.3981ZM12.334 24C12.334 23.1716 13.0056 22.5 13.834 22.5H18.834C19.6624 22.5 20.334 23.1716 20.334 24C20.334 24.8284 19.6624 25.5 18.834 25.5H13.834C13.0056 25.5 12.334 24.8284 12.334 24Z" fill="#8656ED"/>
</svg>
