<svg width="49" height="48" viewBox="0 0 49 48" fill="none" xmlns="http://www.w3.org/2000/svg">
<path fill-rule="evenodd" clip-rule="evenodd" d="M16.334 7H32.334C33.9908 7 35.334 8.34315 35.334 10V38C35.334 39.6569 33.9908 41 32.334 41H16.334C14.6771 41 13.334 39.6569 13.334 38V10C13.334 8.34315 14.6771 7 16.334 7ZM10.334 10C10.334 6.68629 13.0203 4 16.334 4H32.334C35.6477 4 38.334 6.68629 38.334 10V38C38.334 41.3137 35.6477 44 32.334 44H16.334C13.0203 44 10.334 41.3137 10.334 38V10ZM21.834 36C21.0056 36 20.334 36.6716 20.334 37.5C20.334 38.3284 21.0056 39 21.834 39H26.834C27.6624 39 28.334 38.3284 28.334 37.5C28.334 36.6716 27.6624 36 26.834 36H21.834Z" fill="#8656ED"/>
</svg>
