<svg width="49" height="48" viewBox="0 0 49 48" fill="none" xmlns="http://www.w3.org/2000/svg">
<path fill-rule="evenodd" clip-rule="evenodd" d="M44.6739 24.3178L44.2663 28.0533L41.7149 28.5044C41.529 29.2192 41.2989 29.9218 41.0261 30.6079L42.848 32.449L40.9731 35.6966L38.4216 35.0815C37.9634 35.6591 37.4692 36.2069 36.9421 36.7217L37.8633 39.1492L34.8349 41.347L32.7563 39.7437C32.1042 40.0812 31.4318 40.377 30.7428 40.6294L30.6002 43.2291L26.9319 44L25.6847 41.6873C24.9518 41.7325 24.2168 41.7325 23.4838 41.6873L22.3059 44L18.6376 43.2086L18.4339 40.5761C17.7473 40.3147 17.0776 40.0107 16.4286 39.6658L14.4151 41.306L11.4031 39.0917L12.2753 36.5905C11.7538 36.074 11.2638 35.5263 10.808 34.9503L8.31769 35.6146L6.45913 32.3547L8.26471 30.4439C8.13836 30.1158 8.02831 29.8124 7.91011 29.4434C7.79191 29.0743 7.69002 28.7053 7.59628 28.3362L5.04482 27.9262L4.66577 24.1907L7.09088 23.182C7.12714 22.4436 7.20881 21.7082 7.33542 20.98L5.17117 19.5612L6.33686 15.9897L8.9576 16.0594C9.10433 15.7724 9.25514 15.4895 9.41817 15.2107C9.38964 15.2189 9.50783 14.9933 9.54452 14.9933C9.71163 14.7063 9.88689 14.4275 10.0703 14.1527L8.66414 11.9672L11.1708 9.18298L13.5388 10.3188C14.1046 9.84753 14.701 9.41467 15.324 9.02307L14.9164 6.45617L18.332 4.939L20.0356 6.94413C20.7443 6.74965 21.4644 6.60037 22.1918 6.49718L22.8561 4H26.5896L27.3354 6.52587C28.0602 6.63926 28.7775 6.79674 29.4834 6.99744L31.0322 5.08662L34.407 6.60789L34.0727 9.21168L35.8416 10.5156L38.1322 9.3429L40.6307 12.123L39.2694 14.3783L40.3536 16.2809L42.9009 16.1456L44.0829 19.7171L41.935 21.2055L42.1632 23.3829L44.6739 24.3178ZM16.6544 36.0884C19.0064 37.6696 21.7717 38.5136 24.6006 38.5136C28.393 38.5136 32.0301 36.9982 34.7122 34.3007C37.3942 31.6033 38.9015 27.9445 38.9026 24.1292C38.9034 21.2832 38.0653 18.5009 36.4942 16.1342C34.9232 13.7675 32.6898 11.9226 30.0765 10.833C27.4633 9.74331 24.5875 9.4578 21.8129 10.0125C19.0383 10.5672 16.4895 11.9373 14.4889 13.9494C12.4884 15.9615 11.1258 18.5253 10.5736 21.3165C10.0215 24.1077 10.3045 27.001 11.3868 29.6304C12.4692 32.2598 14.3023 34.5072 16.6544 36.0884ZM19.4201 24.7161C19.4201 23.2605 20.0315 22.4035 21.1075 22.4035C22.1835 22.4035 22.8315 23.2605 22.8315 24.6792C22.8315 26.1718 22.1998 27.0657 21.1442 27.0657C20.0885 27.0657 19.4201 26.1718 19.4201 24.7161ZM15.1201 32.9991H21.1075V30.9489H19.4405V28.1318C19.7562 28.4835 20.1425 28.7637 20.574 28.9538C21.0054 29.144 21.472 29.2398 21.943 29.2349C24.148 29.2349 25.7091 27.3486 25.7091 24.6628C25.7091 22.0508 24.0951 20.0703 21.9797 20.0703C21.4896 20.0698 21.0059 20.1822 20.5657 20.399C20.1256 20.6158 19.7406 20.9312 19.4405 21.321V20.2015H15.1201V22.2518H16.6037V30.9489H15.1201V32.9991ZM32.4017 29.0457H27.0054V26.9954H28.2281V22.2512H27.0054V20.201H28.2281V19.4547C28.2281 17.8145 29.137 16.1333 31.6396 16.1333C32.9764 16.1333 33.9383 16.5433 34.5538 17.3634L32.4017 18.9995C32.198 18.3106 32.0879 18.0482 31.6966 18.0482C31.3054 18.0482 31.0486 18.4583 31.0486 19.2783V20.2297H32.4017V22.2799H31.0486V27.0405H32.4017V29.0457ZM40.5696 38.1698H40.2277V38.7047H40.5012C40.7291 38.7047 40.9418 38.6895 40.9418 38.4296C40.9418 38.1698 40.7519 38.1698 40.5696 38.1698ZM40.2277 39.6447H39.9619V37.9405H40.6151C41.0177 37.9405 41.2076 38.0934 41.2076 38.422C41.2109 38.4824 41.2015 38.5428 41.1802 38.5994C41.1589 38.656 41.1262 38.7075 41.084 38.7506C41.0419 38.7938 40.9912 38.8276 40.9353 38.8499C40.8795 38.8723 40.8196 38.8827 40.7595 38.8805L41.2456 39.6447H40.9646L40.5012 38.8805H40.2277V39.6447ZM39.3102 39.6115C39.1526 39.3695 39.0701 39.0858 39.0731 38.7964C39.0741 38.6058 39.1124 38.4172 39.1859 38.2414C39.2593 38.0656 39.3665 37.9061 39.5012 37.7719C39.6359 37.6378 39.7956 37.5317 39.9711 37.4597C40.1466 37.3876 40.3344 37.3511 40.524 37.3521C40.8116 37.3521 41.0927 37.4381 41.3316 37.5992C41.5705 37.7602 41.7565 37.9891 41.8658 38.2567C41.9752 38.5244 42.003 38.8186 41.9458 39.1022C41.8886 39.3857 41.7489 39.6458 41.5444 39.8493C41.34 40.0528 41.0801 40.1906 40.7976 40.2452C40.5152 40.2998 40.223 40.2687 39.9581 40.1559C39.6933 40.043 39.4678 39.8536 39.3102 39.6115ZM39.5541 38.1428C39.4178 38.334 39.3403 38.5613 39.3314 38.7964C39.3241 38.9581 39.3497 39.1195 39.4065 39.2709C39.4633 39.4223 39.5501 39.5605 39.6617 39.677C39.7733 39.7936 39.9073 39.8861 40.0555 39.9488C40.2038 40.0116 40.3631 40.0433 40.524 40.0421C40.7579 40.042 40.9866 39.9726 41.1816 39.8427C41.3766 39.7128 41.5293 39.528 41.6208 39.3114C41.7123 39.0948 41.7384 38.856 41.6959 38.6246C41.6535 38.3932 41.5444 38.1794 41.3821 38.0099C41.2198 37.8405 41.0116 37.7227 40.7833 37.6714C40.5551 37.62 40.3168 37.6373 40.0983 37.7212C39.8797 37.805 39.6905 37.9516 39.5541 38.1428Z" fill="#8656ED"/>
</svg>
